<?xml version="1.0" encoding="utf-8"?>
<!-- Generator: Adobe Illustrator 18.0.0, SVG Export Plug-In . SVG Version: 6.00 Build 0)  -->
<!DOCTYPE svg PUBLIC "-//W3C//DTD SVG 1.1//EN" "http://www.w3.org/Graphics/SVG/1.1/DTD/svg11.dtd">
<svg version="1.1" id="Layer_1" xmlns="http://www.w3.org/2000/svg" xmlns:xlink="http://www.w3.org/1999/xlink" x="0px" y="0px"
	 viewBox="0 0 665 130" style="enable-background:new 0 0 665 130;" xml:space="preserve">
<style type="text/css">
	.st0{fill:#FFCF04;}
	.st1{fill:#E6E7E8;}
	.st2{fill:url(#SVGID_1_);}
	.st3{fill:url(#SVGID_2_);}
	.st4{fill:url(#SVGID_3_);}
	.st5{fill:url(#SVGID_4_);}
	.st6{fill:url(#SVGID_5_);}
	.st7{fill:url(#SVGID_6_);}
	.st8{fill:url(#SVGID_7_);}
	.st9{fill:url(#SVGID_8_);}
	.st10{fill:url(#SVGID_9_);}
	.st11{fill:#F1F1F2;}
	.st12{fill:#FCB614;}
	.st13{fill:url(#SVGID_10_);}
	.st14{fill:url(#SVGID_11_);}
	.st15{fill:url(#SVGID_12_);}
	.st16{fill:url(#SVGID_13_);}
	.st17{fill:url(#SVGID_14_);}
	.st18{fill:url(#SVGID_15_);}
	.st19{fill:url(#SVGID_16_);}
	.st20{fill:url(#SVGID_17_);}
	.st21{fill:url(#SVGID_18_);}
</style>
<g>
	<g>
		<g>
			<g>
				<g>
					<path class="st0" d="M90.4,63.5c-0.3-4.9,0.4-9.5,2.2-13.6c1.7-4.1,4.3-7.7,7.5-10.8c3.3-3.1,7.1-5.5,11.6-7.4
						c4.5-1.8,9.3-2.9,14.5-3.3c4.1-0.3,7.7-0.1,11,0.3c3.2,0.5,6,1.1,8.3,1.9c2.7,0.9,5,1.8,7,2.9c-4.2,7.3-6.3,10.9-10.4,18.1
						c-1.2-0.7-2.5-1.4-3.8-2c-1.2-0.4-2.7-0.8-4.4-1.2c-1.7-0.4-3.6-0.5-5.8-0.4c-2.2,0.1-4.2,0.6-6,1.4c-1.8,0.8-3.4,1.8-4.7,3.1
						c-1.3,1.3-2.3,2.7-3,4.3c-0.7,1.6-1,3.3-0.9,5.2c0.1,1.8,0.6,3.5,1.5,5c0.9,1.5,2.1,2.9,3.6,4c1.5,1.1,3.2,2,5.1,2.6
						c2,0.6,4.1,0.8,6.3,0.7c2.3-0.1,4.3-0.5,6-1c1.7-0.6,3.2-1.2,4.4-1.9c1.4-0.8,2.6-1.6,3.6-2.6c4.8,6.8,7.2,10.2,12,17
						c-1.8,1.5-4,2.8-6.6,3.9c-2.2,1-4.9,1.9-8,2.8c-3.1,0.9-6.7,1.4-10.8,1.6c-5.5,0.2-10.6-0.4-15.4-1.7
						c-4.7-1.4-8.9-3.4-12.5-6.1c-3.6-2.7-6.4-5.9-8.6-9.8C91.9,72.7,90.7,68.3,90.4,63.5z M103.8,62.7c-0.2-3,0.2-5.8,1.3-8.5
						c1-2.7,2.5-5,4.6-7.1c2-2.1,4.5-3.8,7.6-5.1c3-1.3,6.4-2.1,10.2-2.3c1.9-0.1,3.5-0.1,5,0c1.5,0.1,2.7,0.4,3.7,0.6
						c1.2,0.3,2.3,0.6,3.2,1c0.6-0.9,0.8-1.4,1.4-2.3c-1.2-0.4-2.4-0.7-3.7-1c-1.2-0.2-2.6-0.4-4.2-0.6c-1.6-0.2-3.4-0.2-5.5,0
						c-3.6,0.2-7.1,1-10.4,2.3c-3.3,1.3-6.1,3.1-8.5,5.4c-2.4,2.2-4.3,4.9-5.7,7.9c-1.4,3-1.9,6.4-1.7,9.9c0.2,3.7,1.1,6.9,2.8,9.7
						c1.6,2.8,3.8,5.2,6.4,7.2c2.7,1.9,5.7,3.4,9.2,4.4c3.5,1,7.1,1.4,10.9,1.2c2.1-0.1,4-0.3,5.7-0.7c1.7-0.4,3.1-0.8,4.3-1.2
						c1.3-0.5,2.5-1,3.5-1.7c-0.6-0.9-1-1.3-1.6-2.2c-0.9,0.6-2,1.1-3.1,1.5c-1,0.4-2.3,0.8-3.8,1.2c-1.5,0.3-3.2,0.6-5.2,0.7
						c-3.9,0.2-7.4-0.2-10.6-1.2c-3.2-1-5.9-2.4-8.2-4.2c-2.3-1.8-4.1-4-5.4-6.5C104.7,68.4,104,65.7,103.8,62.7z"/>
					<path class="st0" d="M156,28.2c14.1-0.8,28.2-1.5,42.2-2.1c0.2,6.7,0.3,10.1,0.6,16.9c-7.7,0.3-11.6,0.5-19.3,0.8
						c0.1,2.8,0.2,4.2,0.3,7.1c7.6-0.3,11.3-0.5,18.9-0.7c0.2,6.4,0.3,9.6,0.5,16c-7.5,0.2-11.3,0.4-18.8,0.6
						c0.1,2.9,0.2,4.4,0.3,7.4c7.9-0.3,11.9-0.4,19.9-0.6c0.2,6.7,0.3,10.1,0.6,16.9c-14.1,0.3-28.2,0.7-42.3,1.2
						C157.9,70.4,156.9,49.3,156,28.2z M193,82.8c0-0.9,0-1.4-0.1-2.3c-8.5,0.2-12.7,0.4-21.2,0.7c-0.3-8.3-0.5-12.5-0.8-20.9
						c8.1-0.3,12.2-0.5,20.3-0.8c0-0.9,0-1.4-0.1-2.3c-8.1,0.3-12.2,0.5-20.3,0.8c-0.3-8.2-0.5-12.4-0.8-20.6
						c8.6-0.4,12.9-0.6,21.4-1c0-0.9,0-1.4-0.1-2.3c-9.7,0.4-14.6,0.7-24.2,1.2c0.7,16.1,1.3,32.2,2,48.3
						C178.6,83.2,183.4,83.1,193,82.8z"/>
					<path class="st0" d="M205.5,25.8c9.5-0.4,14.3-0.6,23.9-1c0.4,16,0.8,31.9,1.2,47.9c7.8-0.2,11.7-0.2,19.5-0.4
						c0.1,6.9,0.2,10.3,0.3,17.2c-14.3,0.2-28.6,0.4-42.9,0.7C206.8,68.7,206.1,47.2,205.5,25.8z M244.3,81.7c0-0.9,0-1.4,0-2.3
						c-9.5,0.1-14.3,0.2-23.8,0.4c-0.4-15.6-0.9-31.2-1.3-46.9c-1.1,0-1.7,0.1-2.8,0.1c0.5,16.4,0.9,32.8,1.4,49.1
						C228.4,82,233.7,81.9,244.3,81.7z"/>
					<path class="st0" d="M252.9,24c14.1-0.4,28.2-0.8,42.3-1.1c0,7,0.1,10.5,0.1,17.4c-7.7,0.1-11.6,0.2-19.3,0.3
						c0,2.9,0.1,4.4,0.1,7.3c7.6-0.1,11.4-0.2,18.9-0.3c0,6.6,0.1,9.9,0.1,16.5c-7.5,0-11.3,0.1-18.8,0.2c0,3,0.1,4.6,0.1,7.6
						c7.9-0.1,11.9-0.1,19.9-0.1c0,7,0.1,10.5,0.1,17.4c-14.1,0-28.2,0-42.3,0.1C253.7,67.7,253.3,45.8,252.9,24z M288.5,81.4
						c0-1,0-1.4,0-2.4c-8.5,0-12.7,0-21.2,0.1c-0.1-8.6-0.2-13-0.3-21.6c8.1-0.1,12.2-0.2,20.3-0.3c0-1,0-1.4,0-2.4
						c-8.1,0.1-12.2,0.1-20.3,0.3c-0.1-8.5-0.2-12.8-0.3-21.3c8.6-0.2,12.9-0.3,21.5-0.5c0-1,0-1.4,0-2.4
						c-9.7,0.2-14.6,0.3-24.3,0.5c0.3,16.7,0.5,33.3,0.8,50C274.1,81.4,278.9,81.4,288.5,81.4z"/>
					<path class="st0" d="M302.4,22.8c9.4-0.2,18.7-0.3,28.1-0.4c3.6,0,6.9,0.3,9.8,1.1c3,0.8,5.5,1.9,7.6,3.4
						c2.1,1.5,3.7,3.4,4.9,5.7c1.2,2.3,1.7,4.9,1.7,8c0,2.2-0.3,4-0.9,5.5c-0.6,1.5-1.2,2.8-1.8,3.8c-0.8,1.2-1.7,2.2-2.7,3
						c1.6,1,3,2.2,4.2,3.7c1.1,1.3,2,2.9,2.9,4.9c0.9,2,1.3,4.4,1.3,7.2c0,3.3-0.7,6.2-1.9,8.8c-1.2,2.6-3,4.9-5.2,6.7
						c-2.2,1.8-5,3.2-8.2,4.1c-3.2,0.9-6.8,1.4-10.7,1.3c-9.6-0.1-19.2-0.2-28.8-0.2C302.6,67.2,302.5,45,302.4,22.8z M328.5,81.5
						c6.2,0.1,10.8-1.2,13.8-3.7c3-2.5,4.5-5.9,4.5-10.2c0-2.8-0.6-5-1.8-6.6c-1.2-1.7-2.6-3-4-3.9c-1.8-1.1-3.7-1.8-5.9-2.2
						c1.7-0.5,3.2-1.2,4.6-2.2c1.2-0.9,2.3-2.1,3.3-3.6c1-1.5,1.5-3.5,1.5-5.8c0-4.3-1.4-7.5-4.2-9.6c-2.9-2.1-6.8-3.2-11.7-3.2
						c-6.2,0.1-9.3,0.1-15.5,0.2c0,16.9,0.1,33.9,0.1,50.8C319.4,81.5,322.4,81.5,328.5,81.5z M316,53.7c0-8.3,0-12.4,0-20.7
						c5.1-0.1,7.6-0.1,12.7-0.1c4.7,0,8,0.9,10,2.8c2,1.9,3,4.4,3,7.5c0,3.1-1,5.6-3.1,7.5c-2,1.9-5.4,2.9-10,2.9
						C323.6,53.6,321,53.6,316,53.7z M316,79c0-9.2,0-13.8,0-23c5,0,7.5,0,12.5,0c2.2,0,4.2,0.2,6.1,0.7c1.9,0.4,3.5,1.1,5,2
						c1.4,0.9,2.5,2.1,3.3,3.6c0.8,1.5,1.2,3.2,1.2,5.3c0,4.1-1.5,7.1-4.3,8.9s-6.6,2.7-11.3,2.6C323.5,79.1,321,79.1,316,79z
						 M332.5,42.8c0-3.1-1.8-4.6-5.3-4.6c-1,0-1.5,0-2.6,0c0,3.7,0,5.6,0,9.3c1,0,1.5,0,2.6,0C330.7,47.5,332.5,45.9,332.5,42.8z
						 M327.1,73.8c5.4,0,8.1-1.9,8.1-5.8c0-3.9-2.7-5.9-8.1-5.9c-1,0-1.5,0-2.6,0c0,4.7,0,7,0,11.7
						C325.5,73.8,326.1,73.8,327.1,73.8z"/>
					<path class="st0" d="M362.8,22.2c9.9,0,14.9,0,24.8,0c4.6,0,8.8,0.6,12.7,1.8c3.9,1.2,7.2,3,10,5.3c2.8,2.3,5,5.2,6.5,8.5
						c1.5,3.4,2.2,7.3,2.1,11.6c-0.1,3.5-0.7,6.4-1.7,8.8c-1.1,2.4-2.2,4.4-3.4,5.9c-1.5,1.8-3.1,3.2-4.9,4.4
						c5.1,9.2,7.6,13.9,12.7,23.2c-10.6-0.4-15.9-0.6-26.4-0.9c-4.1-7.1-6.2-10.6-10.3-17.6c-0.1,6.9-0.2,10.4-0.3,17.3
						c-9-0.2-13.5-0.3-22.5-0.5C362.3,67.5,362.5,44.8,362.8,22.2z M384.4,66.8c2.8,0.1,5.5-0.2,8.1-0.7c3.9,6.7,5.9,10,9.8,16.7
						c1.3,0,2,0.1,3.3,0.1c-4.1-7.1-6.1-10.6-10.3-17.6c3.9-1.2,6.9-3.2,9.3-5.8c2.3-2.7,3.6-6.2,3.6-10.5c0.1-3-0.5-5.7-1.6-8
						c-1.2-2.3-2.8-4.2-4.9-5.8c-2.1-1.6-4.5-2.8-7.4-3.6c-2.8-0.8-6-1.2-9.3-1.3c-4.6,0-7,0-11.6-0.1c-0.2,17.3-0.5,34.5-0.7,51.8
						c1.1,0,1.7,0,2.8,0.1c0.1-6.2,0.1-9.3,0.2-15.5C379.2,66.7,380.9,66.8,384.4,66.8z M375.7,64.2c0.1-10.5,0.3-20.9,0.4-31.4
						c3.5,0,5.3,0,8.8,0.1c6.5,0,11.6,1.5,15.2,4.3c3.6,2.8,5.4,6.8,5.3,11.8c-0.1,5.1-2,9-5.7,11.6c-3.7,2.6-8.8,3.9-15.3,3.8
						C381,64.3,379.2,64.3,375.7,64.2z M385.1,55.9c0.5,0,0.7,0,1.2,0c2.7,0,5-0.5,6.9-1.6c1.9-1.1,2.9-3.1,2.9-5.8
						c0.1-2.7-0.9-4.7-2.7-5.9c-1.9-1.2-4.2-1.8-6.9-1.8c-0.5,0-0.7,0-1.2,0C385.3,46.7,385.2,49.8,385.1,55.9z"/>
					<path class="st0" d="M425.5,22.6c9.7,0.1,14.6,0.2,24.3,0.4c-0.8,23.3-1.5,46.6-2.3,69.8c-9.6-0.4-14.3-0.6-23.9-1
						C424.3,68.8,424.9,45.7,425.5,22.6z M437.2,84c0.5-17.6,1.1-35.3,1.6-52.9c-1.1,0-1.7,0-2.8-0.1c-0.5,17.6-1,35.2-1.6,52.9
						C435.6,84,436.1,84,437.2,84z"/>
					<path class="st0" d="M466.2,41.8c-5.3-0.2-7.9-0.2-13.2-0.4c0.2-7.3,0.4-11,0.6-18.3c16.7,0.4,33.4,0.8,50.2,1.4
						c-0.3,7.5-0.5,11.2-0.9,18.6c-5.3-0.2-7.9-0.3-13.2-0.5c-0.8,17.4-1.5,34.8-2.3,52.2c-9.3-0.5-13.9-0.7-23.2-1.2
						C464.9,76.3,465.5,59.1,466.2,41.8z M477.6,85.8c0.7-17,1.4-34,2.1-51.1c6.1,0.2,9.2,0.3,15.3,0.5c0-1,0.1-1.5,0.1-2.5
						c-11.2-0.4-22.3-0.7-33.5-1c0,1-0.1,1.5-0.1,2.5c6.1,0.2,9.2,0.3,15.3,0.4c-0.7,17-1.4,34-2,51
						C475.9,85.7,476.5,85.7,477.6,85.8z"/>
					<path class="st0" d="M521.8,65.9c-6.6-13.9-13.4-27.7-20.2-41.5c10.2,0.3,15.3,0.5,25.5,1c3,6.2,4.5,9.3,7.5,15.5
						c3.6-5.9,5.4-8.9,9-14.8c10.2,0.5,15.3,0.7,25.5,1.2c-8.2,13.3-16.4,26.6-24.6,39.9c-0.6,10.3-1.2,20.6-1.8,31
						c-9-0.6-13.5-0.9-22.5-1.5C520.7,86.4,521.3,76.2,521.8,65.9z M533.3,88.9c0.6-10.3,0.8-15.4,1.4-25.7
						c5.7-9.4,11.5-18.7,17.3-28.1c-1.3-0.1-2-0.1-3.3-0.2c-5.1,8.3-10.1,16.5-15.1,24.8c-4.1-8.7-8.3-17.4-12.5-26.1
						c-1.3-0.1-1.9-0.1-3.2-0.1c4.7,9.8,9.4,19.6,14,29.5c-0.6,10.3-0.8,15.4-1.4,25.7C531.6,88.8,532.2,88.8,533.3,88.9z"/>
				</g>
				<g>
					<linearGradient id="SVGID_1_" gradientUnits="userSpaceOnUse" x1="110.6158" y1="91.2511" x2="247.1937" y2="-145.3088">
						<stop  offset="0" style="stop-color:#FFCF04"/>
						<stop  offset="8.045647e-02" style="stop-color:#FDD41F"/>
						<stop  offset="0.1716" style="stop-color:#FBD937"/>
						<stop  offset="0.2693" style="stop-color:#F9DC47"/>
						<stop  offset="0.3775" style="stop-color:#F8DE51"/>
						<stop  offset="0.5163" style="stop-color:#F8DF54"/>
						<stop  offset="1" style="stop-color:#F9CD16"/>
					</linearGradient>
					<path class="st2" d="M90.4,63.5c-0.3-4.9,0.4-9.5,2.2-13.6c1.7-4.1,4.3-7.7,7.5-10.8c3.3-3.1,7.1-5.5,11.6-7.4
						c4.5-1.8,9.3-2.9,14.5-3.3c4.1-0.3,7.7-0.1,11,0.3c3.2,0.5,6,1.1,8.3,1.9c2.7,0.9,5,1.8,7,2.9c-4.2,7.3-6.3,10.9-10.4,18.1
						c-1.2-0.7-2.5-1.4-3.8-2c-1.2-0.4-2.7-0.8-4.4-1.2c-1.7-0.4-3.6-0.5-5.8-0.4c-2.2,0.1-4.2,0.6-6,1.4c-1.8,0.8-3.4,1.8-4.7,3.1
						c-1.3,1.3-2.3,2.7-3,4.3c-0.7,1.6-1,3.3-0.9,5.2c0.1,1.8,0.6,3.5,1.5,5c0.9,1.5,2.1,2.9,3.6,4c1.5,1.1,3.2,2,5.1,2.6
						c2,0.6,4.1,0.8,6.3,0.7c2.3-0.1,4.3-0.5,6-1c1.7-0.6,3.2-1.2,4.4-1.9c1.4-0.8,2.6-1.6,3.6-2.6c4.8,6.8,7.2,10.2,12,17
						c-1.8,1.5-4,2.8-6.6,3.9c-2.2,1-4.9,1.9-8,2.8c-3.1,0.9-6.7,1.4-10.8,1.6c-5.5,0.2-10.6-0.4-15.4-1.7
						c-4.7-1.4-8.9-3.4-12.5-6.1c-3.6-2.7-6.4-5.9-8.6-9.8C91.9,72.7,90.7,68.3,90.4,63.5z M103.8,62.7c-0.2-3,0.2-5.8,1.3-8.5
						c1-2.7,2.5-5,4.6-7.1c2-2.1,4.5-3.8,7.6-5.1c3-1.3,6.4-2.1,10.2-2.3c1.9-0.1,3.5-0.1,5,0c1.5,0.1,2.7,0.4,3.7,0.6
						c1.2,0.3,2.3,0.6,3.2,1c0.6-0.9,0.8-1.4,1.4-2.3c-1.2-0.4-2.4-0.7-3.7-1c-1.2-0.2-2.6-0.4-4.2-0.6c-1.6-0.2-3.4-0.2-5.5,0
						c-3.6,0.2-7.1,1-10.4,2.3c-3.3,1.3-6.1,3.1-8.5,5.4c-2.4,2.2-4.3,4.9-5.7,7.9c-1.4,3-1.9,6.4-1.7,9.9c0.2,3.7,1.1,6.9,2.8,9.7
						c1.6,2.8,3.8,5.2,6.4,7.2c2.7,1.9,5.7,3.4,9.2,4.4c3.5,1,7.1,1.4,10.9,1.2c2.1-0.1,4-0.3,5.7-0.7c1.7-0.4,3.1-0.8,4.3-1.2
						c1.3-0.5,2.5-1,3.5-1.7c-0.6-0.9-1-1.3-1.6-2.2c-0.9,0.6-2,1.1-3.1,1.5c-1,0.4-2.3,0.8-3.8,1.2c-1.5,0.3-3.2,0.6-5.2,0.7
						c-3.9,0.2-7.4-0.2-10.6-1.2c-3.2-1-5.9-2.4-8.2-4.2c-2.3-1.8-4.1-4-5.4-6.5C104.7,68.4,104,65.7,103.8,62.7z"/>
					<linearGradient id="SVGID_2_" gradientUnits="userSpaceOnUse" x1="149.1885" y1="110.13" x2="285.8837" y2="-126.6332">
						<stop  offset="0" style="stop-color:#FFCF04"/>
						<stop  offset="8.045647e-02" style="stop-color:#FDD41F"/>
						<stop  offset="0.1716" style="stop-color:#FBD937"/>
						<stop  offset="0.2693" style="stop-color:#F9DC47"/>
						<stop  offset="0.3775" style="stop-color:#F8DE51"/>
						<stop  offset="0.5163" style="stop-color:#F8DF54"/>
						<stop  offset="1" style="stop-color:#F9CD16"/>
					</linearGradient>
					<path class="st3" d="M156,28.2c14.1-0.8,28.2-1.5,42.2-2.1c0.2,6.7,0.3,10.1,0.6,16.9c-7.7,0.3-11.6,0.5-19.3,0.8
						c0.1,2.8,0.2,4.2,0.3,7.1c7.6-0.3,11.3-0.5,18.9-0.7c0.2,6.4,0.3,9.6,0.5,16c-7.5,0.2-11.3,0.4-18.8,0.6
						c0.1,2.9,0.2,4.4,0.3,7.4c7.9-0.3,11.9-0.4,19.9-0.6c0.2,6.7,0.3,10.1,0.6,16.9c-14.1,0.3-28.2,0.7-42.3,1.2
						C157.9,70.4,156.9,49.3,156,28.2z M193,82.8c0-0.9,0-1.4-0.1-2.3c-8.5,0.2-12.7,0.4-21.2,0.7c-0.3-8.3-0.5-12.5-0.8-20.9
						c8.1-0.3,12.2-0.5,20.3-0.8c0-0.9,0-1.4-0.1-2.3c-8.1,0.3-12.2,0.5-20.3,0.8c-0.3-8.2-0.5-12.4-0.8-20.6
						c8.6-0.4,12.9-0.6,21.4-1c0-0.9,0-1.4-0.1-2.3c-9.7,0.4-14.6,0.7-24.2,1.2c0.7,16.1,1.3,32.2,2,48.3
						C178.6,83.2,183.4,83.1,193,82.8z"/>
					<linearGradient id="SVGID_3_" gradientUnits="userSpaceOnUse" x1="186.5198" y1="129.3492" x2="323.0457" y2="-107.1205">
						<stop  offset="0" style="stop-color:#FFCF04"/>
						<stop  offset="8.045647e-02" style="stop-color:#FDD41F"/>
						<stop  offset="0.1716" style="stop-color:#FBD937"/>
						<stop  offset="0.2693" style="stop-color:#F9DC47"/>
						<stop  offset="0.3775" style="stop-color:#F8DE51"/>
						<stop  offset="0.5163" style="stop-color:#F8DF54"/>
						<stop  offset="1" style="stop-color:#F9CD16"/>
					</linearGradient>
					<path class="st4" d="M205.5,25.8c9.5-0.4,14.3-0.6,23.9-1c0.4,16,0.8,31.9,1.2,47.9c7.8-0.2,11.7-0.2,19.5-0.4
						c0.1,6.9,0.2,10.3,0.3,17.2c-14.3,0.2-28.6,0.4-42.9,0.7C206.8,68.7,206.1,47.2,205.5,25.8z M244.3,81.7c0-0.9,0-1.4,0-2.3
						c-9.5,0.1-14.3,0.2-23.8,0.4c-0.4-15.6-0.9-31.2-1.3-46.9c-1.1,0-1.7,0.1-2.8,0.1c0.5,16.4,0.9,32.8,1.4,49.1
						C228.4,82,233.7,81.9,244.3,81.7z"/>
					<linearGradient id="SVGID_4_" gradientUnits="userSpaceOnUse" x1="221.0068" y1="149.5758" x2="360.9563" y2="-92.8239">
						<stop  offset="0" style="stop-color:#FFCF04"/>
						<stop  offset="8.045647e-02" style="stop-color:#FDD41F"/>
						<stop  offset="0.1716" style="stop-color:#FBD937"/>
						<stop  offset="0.2693" style="stop-color:#F9DC47"/>
						<stop  offset="0.3775" style="stop-color:#F8DE51"/>
						<stop  offset="0.5163" style="stop-color:#F8DF54"/>
						<stop  offset="1" style="stop-color:#F9CD16"/>
					</linearGradient>
					<path class="st5" d="M252.9,24c14.1-0.4,28.2-0.8,42.3-1.1c0,7,0.1,10.5,0.1,17.4c-7.7,0.1-11.6,0.2-19.3,0.3
						c0,2.9,0.1,4.4,0.1,7.3c7.6-0.1,11.4-0.2,18.9-0.3c0,6.6,0.1,9.9,0.1,16.5c-7.5,0-11.3,0.1-18.8,0.2c0,3,0.1,4.6,0.1,7.6
						c7.9-0.1,11.9-0.1,19.9-0.1c0,7,0.1,10.5,0.1,17.4c-14.1,0-28.2,0-42.3,0.1C253.7,67.7,253.3,45.8,252.9,24z M288.5,81.4
						c0-1,0-1.4,0-2.4c-8.5,0-12.7,0-21.2,0.1c-0.1-8.6-0.2-13-0.3-21.6c8.1-0.1,12.2-0.2,20.3-0.3c0-1,0-1.4,0-2.4
						c-8.1,0.1-12.2,0.1-20.3,0.3c-0.1-8.5-0.2-12.8-0.3-21.3c8.6-0.2,12.9-0.3,21.5-0.5c0-1,0-1.4,0-2.4
						c-9.7,0.2-14.6,0.3-24.3,0.5c0.3,16.7,0.5,33.3,0.8,50C274.1,81.4,278.9,81.4,288.5,81.4z"/>
					<linearGradient id="SVGID_5_" gradientUnits="userSpaceOnUse" x1="258.5997" y1="172.1463" x2="400.2012" y2="-73.1146">
						<stop  offset="0" style="stop-color:#FFCF04"/>
						<stop  offset="8.045647e-02" style="stop-color:#FDD41F"/>
						<stop  offset="0.1716" style="stop-color:#FBD937"/>
						<stop  offset="0.2693" style="stop-color:#F9DC47"/>
						<stop  offset="0.3775" style="stop-color:#F8DE51"/>
						<stop  offset="0.5163" style="stop-color:#F8DF54"/>
						<stop  offset="1" style="stop-color:#F9CD16"/>
					</linearGradient>
					<path class="st6" d="M302.4,22.8c9.4-0.2,18.7-0.3,28.1-0.4c3.6,0,6.9,0.3,9.8,1.1c3,0.8,5.5,1.9,7.6,3.4
						c2.1,1.5,3.7,3.4,4.9,5.7c1.2,2.3,1.7,4.9,1.7,8c0,2.2-0.3,4-0.9,5.5c-0.6,1.5-1.2,2.8-1.8,3.8c-0.8,1.2-1.7,2.2-2.7,3
						c1.6,1,3,2.2,4.2,3.7c1.1,1.3,2,2.9,2.9,4.9c0.9,2,1.3,4.4,1.3,7.2c0,3.3-0.7,6.2-1.9,8.8c-1.2,2.6-3,4.9-5.2,6.7
						c-2.2,1.8-5,3.2-8.2,4.1c-3.2,0.9-6.8,1.4-10.7,1.3c-9.6-0.1-19.2-0.2-28.8-0.2C302.6,67.2,302.5,45,302.4,22.8z M328.5,81.5
						c6.2,0.1,10.8-1.2,13.8-3.7c3-2.5,4.5-5.9,4.5-10.2c0-2.8-0.6-5-1.8-6.6c-1.2-1.7-2.6-3-4-3.9c-1.8-1.1-3.7-1.8-5.9-2.2
						c1.7-0.5,3.2-1.2,4.6-2.2c1.2-0.9,2.3-2.1,3.3-3.6c1-1.5,1.5-3.5,1.5-5.8c0-4.3-1.4-7.5-4.2-9.6c-2.9-2.1-6.8-3.2-11.7-3.2
						c-6.2,0.1-9.3,0.1-15.5,0.2c0,16.9,0.1,33.9,0.1,50.8C319.4,81.5,322.4,81.5,328.5,81.5z M316,53.7c0-8.3,0-12.4,0-20.7
						c5.1-0.1,7.6-0.1,12.7-0.1c4.7,0,8,0.9,10,2.8c2,1.9,3,4.4,3,7.5c0,3.1-1,5.6-3.1,7.5c-2,1.9-5.4,2.9-10,2.9
						C323.6,53.6,321,53.6,316,53.7z M316,79c0-9.2,0-13.8,0-23c5,0,7.5,0,12.5,0c2.2,0,4.2,0.2,6.1,0.7c1.9,0.4,3.5,1.1,5,2
						c1.4,0.9,2.5,2.1,3.3,3.6c0.8,1.5,1.2,3.2,1.2,5.3c0,4.1-1.5,7.1-4.3,8.9s-6.6,2.7-11.3,2.6C323.5,79.1,321,79.1,316,79z
						 M332.5,42.8c0-3.1-1.8-4.6-5.3-4.6c-1,0-1.5,0-2.6,0c0,3.7,0,5.6,0,9.3c1,0,1.5,0,2.6,0C330.7,47.5,332.5,45.9,332.5,42.8z
						 M327.1,73.8c5.4,0,8.1-1.9,8.1-5.8c0-3.9-2.7-5.9-8.1-5.9c-1,0-1.5,0-2.6,0c0,4.7,0,7,0,11.7
						C325.5,73.8,326.1,73.8,327.1,73.8z"/>
					<linearGradient id="SVGID_6_" gradientUnits="userSpaceOnUse" x1="307.7797" y1="203.1464" x2="451.2014" y2="-45.2673">
						<stop  offset="0" style="stop-color:#FFCF04"/>
						<stop  offset="8.045647e-02" style="stop-color:#FDD41F"/>
						<stop  offset="0.1716" style="stop-color:#FBD937"/>
						<stop  offset="0.2693" style="stop-color:#F9DC47"/>
						<stop  offset="0.3775" style="stop-color:#F8DE51"/>
						<stop  offset="0.5163" style="stop-color:#F8DF54"/>
						<stop  offset="1" style="stop-color:#F9CD16"/>
					</linearGradient>
					<path class="st7" d="M362.8,22.2c9.9,0,14.9,0,24.8,0c4.6,0,8.8,0.6,12.7,1.8c3.9,1.2,7.2,3,10,5.3c2.8,2.3,5,5.2,6.5,8.5
						c1.5,3.4,2.2,7.3,2.1,11.6c-0.1,3.5-0.7,6.4-1.7,8.8c-1.1,2.4-2.2,4.4-3.4,5.9c-1.5,1.8-3.1,3.2-4.9,4.4
						c5.1,9.2,7.6,13.9,12.7,23.2c-10.6-0.4-15.9-0.6-26.4-0.9c-4.1-7.1-6.2-10.6-10.3-17.6c-0.1,6.9-0.2,10.4-0.3,17.3
						c-9-0.2-13.5-0.3-22.5-0.5C362.3,67.5,362.5,44.8,362.8,22.2z M384.4,66.8c2.8,0.1,5.5-0.2,8.1-0.7c3.9,6.7,5.9,10,9.8,16.7
						c1.3,0,2,0.1,3.3,0.1c-4.1-7.1-6.1-10.6-10.3-17.6c3.9-1.2,6.9-3.2,9.3-5.8c2.3-2.7,3.6-6.2,3.6-10.5c0.1-3-0.5-5.7-1.6-8
						c-1.2-2.3-2.8-4.2-4.9-5.8c-2.1-1.6-4.5-2.8-7.4-3.6c-2.8-0.8-6-1.2-9.3-1.3c-4.6,0-7,0-11.6-0.1c-0.2,17.3-0.5,34.5-0.7,51.8
						c1.1,0,1.7,0,2.8,0.1c0.1-6.2,0.1-9.3,0.2-15.5C379.2,66.7,380.9,66.8,384.4,66.8z M375.7,64.2c0.1-10.5,0.3-20.9,0.4-31.4
						c3.5,0,5.3,0,8.8,0.1c6.5,0,11.6,1.5,15.2,4.3c3.6,2.8,5.4,6.8,5.3,11.8c-0.1,5.1-2,9-5.7,11.6c-3.7,2.6-8.8,3.9-15.3,3.8
						C381,64.3,379.2,64.3,375.7,64.2z M385.1,55.9c0.5,0,0.7,0,1.2,0c2.7,0,5-0.5,6.9-1.6c1.9-1.1,2.9-3.1,2.9-5.8
						c0.1-2.7-0.9-4.7-2.7-5.9c-1.9-1.2-4.2-1.8-6.9-1.8c-0.5,0-0.7,0-1.2,0C385.3,46.7,385.2,49.8,385.1,55.9z"/>
					<linearGradient id="SVGID_7_" gradientUnits="userSpaceOnUse" x1="338.6362" y1="227.2594" x2="485.26" y2="-26.7004">
						<stop  offset="0" style="stop-color:#FFCF04"/>
						<stop  offset="8.045647e-02" style="stop-color:#FDD41F"/>
						<stop  offset="0.1716" style="stop-color:#FBD937"/>
						<stop  offset="0.2693" style="stop-color:#F9DC47"/>
						<stop  offset="0.3775" style="stop-color:#F8DE51"/>
						<stop  offset="0.5163" style="stop-color:#F8DF54"/>
						<stop  offset="1" style="stop-color:#F9CD16"/>
					</linearGradient>
					<path class="st8" d="M425.5,22.6c9.7,0.1,14.6,0.2,24.3,0.4c-0.8,23.3-1.5,46.6-2.3,69.8c-9.6-0.4-14.3-0.6-23.9-1
						C424.3,68.8,424.9,45.7,425.5,22.6z M437.2,84c0.5-17.6,1.1-35.3,1.6-52.9c-1.1,0-1.7,0-2.8-0.1c-0.5,17.6-1,35.2-1.6,52.9
						C435.6,84,436.1,84,437.2,84z"/>
					<linearGradient id="SVGID_8_" gradientUnits="userSpaceOnUse" x1="363.0297" y1="245.1319" x2="510.4981" y2="-10.2909">
						<stop  offset="0" style="stop-color:#FFCF04"/>
						<stop  offset="8.045647e-02" style="stop-color:#FDD41F"/>
						<stop  offset="0.1716" style="stop-color:#FBD937"/>
						<stop  offset="0.2693" style="stop-color:#F9DC47"/>
						<stop  offset="0.3775" style="stop-color:#F8DE51"/>
						<stop  offset="0.5163" style="stop-color:#F8DF54"/>
						<stop  offset="1" style="stop-color:#F9CD16"/>
					</linearGradient>
					<path class="st9" d="M466.2,41.8c-5.3-0.2-7.9-0.2-13.2-0.4c0.2-7.3,0.4-11,0.6-18.3c16.7,0.4,33.4,0.8,50.2,1.4
						c-0.3,7.5-0.5,11.2-0.9,18.6c-5.3-0.2-7.9-0.3-13.2-0.5c-0.8,17.4-1.5,34.8-2.3,52.2c-9.3-0.5-13.9-0.7-23.2-1.2
						C464.9,76.3,465.5,59.1,466.2,41.8z M477.6,85.8c0.7-17,1.4-34,2.1-51.1c6.1,0.2,9.2,0.3,15.3,0.5c0-1,0.1-1.5,0.1-2.5
						c-11.2-0.4-22.3-0.7-33.5-1c0,1-0.1,1.5-0.1,2.5c6.1,0.2,9.2,0.3,15.3,0.4c-0.7,17-1.4,34-2,51
						C475.9,85.7,476.5,85.7,477.6,85.8z"/>
					<linearGradient id="SVGID_9_" gradientUnits="userSpaceOnUse" x1="399.9851" y1="272.8585" x2="548.598" y2="15.4535">
						<stop  offset="0" style="stop-color:#FFCF04"/>
						<stop  offset="8.045647e-02" style="stop-color:#FDD41F"/>
						<stop  offset="0.1716" style="stop-color:#FBD937"/>
						<stop  offset="0.2693" style="stop-color:#F9DC47"/>
						<stop  offset="0.3775" style="stop-color:#F8DE51"/>
						<stop  offset="0.5163" style="stop-color:#F8DF54"/>
						<stop  offset="1" style="stop-color:#F9CD16"/>
					</linearGradient>
					<path class="st10" d="M521.8,65.9c-6.6-13.9-13.4-27.7-20.2-41.5c10.2,0.3,15.3,0.5,25.5,1c3,6.2,4.5,9.3,7.5,15.5
						c3.6-5.9,5.4-8.9,9-14.8c10.2,0.5,15.3,0.7,25.5,1.2c-8.2,13.3-16.4,26.6-24.6,39.9c-0.6,10.3-1.2,20.6-1.8,31
						c-9-0.6-13.5-0.9-22.5-1.5C520.7,86.4,521.3,76.2,521.8,65.9z M533.3,88.9c0.6-10.3,0.8-15.4,1.4-25.7
						c5.7-9.4,11.5-18.7,17.3-28.1c-1.3-0.1-2-0.1-3.3-0.2c-5.1,8.3-10.1,16.5-15.1,24.8c-4.1-8.7-8.3-17.4-12.5-26.1
						c-1.3-0.1-1.9-0.1-3.2-0.1c4.7,9.8,9.4,19.6,14,29.5c-0.6,10.3-0.8,15.4-1.4,25.7C531.6,88.8,532.2,88.8,533.3,88.9z"/>
				</g>
			</g>
		</g>
		<g>
			<path class="st11" d="M7.7,62.4L0.9,50.7h7.7l2.5,4.4l2.5-4.4h7.7l-6.7,11.8v8.9H7.7V62.4z"/>
			<path class="st11" d="M19,61c0-1.5,0.3-2.9,0.9-4.2s1.4-2.5,2.4-3.5c1-1,2.2-1.8,3.6-2.3s2.9-0.9,4.4-0.9c1.6,0,3,0.3,4.4,0.9
				c1.4,0.6,2.6,1.3,3.6,2.3c1,1,1.8,2.1,2.4,3.5s0.9,2.7,0.9,4.2s-0.3,2.9-0.9,4.2c-0.6,1.3-1.4,2.5-2.4,3.5s-2.2,1.8-3.6,2.3
				c-1.4,0.6-2.9,0.9-4.4,0.9c-1.6,0-3-0.3-4.4-0.9c-1.4-0.6-2.6-1.3-3.6-2.3c-1-1-1.8-2.1-2.4-3.5C19.3,63.9,19,62.5,19,61z
				 M25.9,61c0,0.6,0.1,1.2,0.4,1.7c0.2,0.5,0.6,1,1,1.4c0.4,0.4,0.9,0.7,1.4,0.9s1.1,0.3,1.8,0.3c0.6,0,1.2-0.1,1.8-0.3
				c0.6-0.2,1-0.5,1.4-0.9c0.4-0.4,0.7-0.9,1-1.4c0.2-0.5,0.4-1.1,0.4-1.7c0-0.6-0.1-1.2-0.4-1.7c-0.2-0.5-0.6-1-1-1.4
				c-0.4-0.4-0.9-0.7-1.4-0.9c-0.6-0.2-1.1-0.3-1.8-0.3c-0.6,0-1.2,0.1-1.8,0.3s-1,0.5-1.4,0.9c-0.4,0.4-0.7,0.9-1,1.4
				C26,59.9,25.9,60.4,25.9,61z"/>
			<path class="st11" d="M52.5,71.9c-1.4,0-2.6-0.2-3.7-0.5s-2-0.8-2.8-1.5s-1.4-1.5-1.8-2.5c-0.4-1-0.6-2.2-0.6-3.6V50.7h6.9v12.9
				c0,0.7,0.2,1.3,0.5,1.7c0.3,0.4,0.8,0.6,1.6,0.6c0.7,0,1.3-0.2,1.6-0.6c0.3-0.4,0.5-0.9,0.5-1.7V50.7h7v13.1
				c0,1.4-0.2,2.6-0.6,3.6c-0.4,1-1,1.8-1.8,2.5c-0.8,0.7-1.7,1.2-2.8,1.5S53.8,71.9,52.5,71.9z"/>
			<path class="st11" d="M63.6,50.7h7.5c1.4,0,2.7,0.2,3.9,0.5c1.2,0.4,2.2,0.9,3.1,1.5c0.9,0.7,1.5,1.5,2,2.5
				c0.5,1,0.7,2.2,0.7,3.5c0,1-0.2,1.9-0.5,2.6c-0.3,0.7-0.6,1.3-1,1.8c-0.4,0.5-0.9,1-1.5,1.4l4.1,6.8h-8.1l-3.3-5.2v5.2h-6.9V50.7
				z M70.6,60.8h0.4c0.8,0,1.5-0.2,2.1-0.5c0.6-0.4,0.9-0.9,0.9-1.8s-0.3-1.4-0.9-1.8c-0.6-0.4-1.3-0.5-2.1-0.5h-0.4V60.8z"/>
		</g>
		<g>
			<path class="st11" d="M567.5,50.7h5.7l5.7,7.9l5.6-7.9h5.7v20.7h-6.9v-7.4l-4.4,6.2l-4.5-6.2v7.4h-6.9V50.7z"/>
			<path class="st11" d="M599,50.7h5.2l8.2,20.7h-6.8l-0.7-1.9h-6.6l-0.7,1.9h-6.8L599,50.7z M603,64.9l-1.5-3.6l-1.5,3.6H603z"/>
			<path class="st11" d="M613.3,56.1h-4v-5.4h15.1v5.4h-4v15.2h-7.2V56.1z"/>
			<path class="st11" d="M624.1,61c0-1.7,0.3-3.1,0.9-4.5c0.6-1.3,1.4-2.5,2.5-3.4c1-0.9,2.3-1.7,3.6-2.2c1.4-0.5,2.9-0.8,4.4-0.8
				c1.2,0,2.3,0.1,3.3,0.3c1,0.2,1.8,0.5,2.5,0.8c0.8,0.3,1.5,0.7,2.1,1.1l-3.4,5.7c-0.3-0.2-0.7-0.5-1.1-0.7
				c-0.4-0.2-0.8-0.3-1.3-0.5c-0.5-0.2-1.1-0.2-1.7-0.2c-0.7,0-1.3,0.1-1.9,0.3s-1.1,0.5-1.5,0.9s-0.8,0.9-1,1.4
				c-0.2,0.5-0.4,1.1-0.4,1.7c0,0.6,0.1,1.2,0.4,1.7c0.2,0.5,0.6,1,1,1.4c0.4,0.4,0.9,0.7,1.5,0.9s1.2,0.3,1.9,0.3s1.3-0.1,1.9-0.2
				s1-0.4,1.4-0.6c0.4-0.2,0.8-0.5,1.1-0.8l3.4,5.7c-0.6,0.5-1.3,0.9-2.1,1.2c-0.7,0.3-1.5,0.6-2.5,0.8s-2.1,0.4-3.3,0.4
				c-1.7,0-3.3-0.3-4.7-0.8c-1.4-0.5-2.7-1.3-3.7-2.2c-1-0.9-1.9-2.1-2.4-3.4S624.1,62.6,624.1,61z"/>
			<path class="st11" d="M644.6,50.7h6.9v7h3.9v-7h7v20.7h-7v-7.7h-3.9v7.7h-6.9V50.7z"/>
		</g>
	</g>
	<polygon class="st0" points="585,80.4 584.8,89.6 592.3,94.8 583.6,97.6 580.9,106.3 575.6,98.8 566.5,99 571.9,91.6 569,83 
		577.6,85.9 	"/>
	<polygon class="st0" points="554.2,100.5 557.6,105.9 563.9,106.2 559.8,111.1 561.5,117.3 555.6,114.9 550.2,118.4 550.7,112 
		545.7,108 551.9,106.5 	"/>
	<polygon class="st12" points="581.2,114.3 579.9,119 583.1,122.8 578.2,123.1 575.6,127.3 573.8,122.6 569,121.5 572.9,118.4 
		572.5,113.5 576.7,116.1 	"/>
	<polygon class="st0" points="108.7,9.2 102.9,16.3 105.5,25.1 97,21.8 89.4,27 89.9,17.8 82.7,12.3 91.5,9.9 94.5,1.3 99.5,8.9 	
		"/>
	<polygon class="st12" points="72.1,5.9 71.3,12.3 76.2,16.4 69.9,17.7 67.4,23.6 64.3,18.1 57.9,17.5 62.2,12.8 60.7,6.6 66.6,9.2 
			"/>
	<polygon class="st0" points="84.8,33.4 80.8,36.4 81,41.3 76.9,38.5 72.3,40.2 73.8,35.5 70.7,31.6 75.7,31.5 78.4,27.4 80,32.1 	
		"/>
</g>
</svg>
