<?xml version="1.0" encoding="utf-8"?>
<!-- Generator: Adobe Illustrator 18.0.0, SVG Export Plug-In . SVG Version: 6.00 Build 0)  -->
<!DOCTYPE svg PUBLIC "-//W3C//DTD SVG 1.1//EN" "http://www.w3.org/Graphics/SVG/1.1/DTD/svg11.dtd">
<svg version="1.1" id="Layer_1" xmlns="http://www.w3.org/2000/svg" xmlns:xlink="http://www.w3.org/1999/xlink" x="0px" y="0px"
	 viewBox="0 0 206.5 38" style="enable-background:new 0 0 206.5 38;" xml:space="preserve">
<style type="text/css">
	.st0{fill:#FFCF04;}
	.st1{fill:#E6E7E8;}
	.st2{fill:url(#SVGID_1_);}
	.st3{fill:url(#SVGID_2_);}
	.st4{fill:url(#SVGID_3_);}
	.st5{fill:url(#SVGID_4_);}
	.st6{fill:url(#SVGID_5_);}
	.st7{fill:url(#SVGID_6_);}
	.st8{fill:url(#SVGID_7_);}
	.st9{fill:url(#SVGID_8_);}
	.st10{fill:url(#SVGID_9_);}
	.st11{fill:#F1F1F2;}
	.st12{fill:#FCB614;}
	.st13{fill:url(#SVGID_10_);}
	.st14{fill:url(#SVGID_11_);}
	.st15{fill:url(#SVGID_12_);}
	.st16{fill:url(#SVGID_13_);}
	.st17{fill:url(#SVGID_14_);}
	.st18{fill:url(#SVGID_15_);}
	.st19{fill:url(#SVGID_16_);}
	.st20{fill:url(#SVGID_17_);}
	.st21{fill:url(#SVGID_18_);}
</style>
<g>
	<g>
		<g>
			<g>
				<g>
					<path class="st0" d="M27,18.6c-0.1-1.6,0.1-3,0.7-4.3c0.6-1.3,1.4-2.5,2.4-3.4c1-1,2.3-1.8,3.7-2.4c1.4-0.6,3-0.9,4.6-1
						c1.3-0.1,2.5,0,3.5,0.1c1,0.2,1.9,0.4,2.7,0.6c0.9,0.3,1.6,0.6,2.2,0.9c-1.3,2.3-2,3.5-3.3,5.8c-0.4-0.2-0.8-0.4-1.2-0.6
						c-0.4-0.1-0.9-0.3-1.4-0.4c-0.5-0.1-1.2-0.2-1.8-0.1c-0.7,0-1.3,0.2-1.9,0.4c-0.6,0.3-1.1,0.6-1.5,1c-0.4,0.4-0.7,0.9-1,1.4
						c-0.2,0.5-0.3,1.1-0.3,1.6c0,0.6,0.2,1.1,0.5,1.6s0.7,0.9,1.1,1.3c0.5,0.4,1,0.6,1.6,0.8c0.6,0.2,1.3,0.3,2,0.2
						c0.7,0,1.4-0.1,1.9-0.3c0.6-0.2,1-0.4,1.4-0.6c0.4-0.2,0.8-0.5,1.1-0.8c1.5,2.2,2.3,3.2,3.8,5.4c-0.6,0.5-1.3,0.9-2.1,1.3
						c-0.7,0.3-1.6,0.6-2.6,0.9c-1,0.3-2.2,0.4-3.5,0.5c-1.8,0.1-3.4-0.1-4.9-0.6c-1.5-0.4-2.8-1.1-4-1.9c-1.1-0.9-2-1.9-2.7-3.1
						C27.4,21.5,27,20.2,27,18.6z M31.2,18.4c-0.1-0.9,0.1-1.8,0.4-2.7c0.3-0.9,0.8-1.6,1.5-2.3c0.6-0.7,1.5-1.2,2.4-1.6
						c1-0.4,2-0.7,3.3-0.7c0.6,0,1.1,0,1.6,0c0.5,0,0.9,0.1,1.2,0.2c0.4,0.1,0.7,0.2,1,0.3c0.2-0.3,0.3-0.4,0.4-0.7
						c-0.4-0.1-0.8-0.2-1.2-0.3c-0.4-0.1-0.8-0.1-1.3-0.2c-0.5,0-1.1-0.1-1.8,0c-1.2,0.1-2.3,0.3-3.3,0.7c-1,0.4-1.9,1-2.7,1.7
						c-0.8,0.7-1.4,1.6-1.8,2.5c-0.4,1-0.6,2-0.5,3.2c0.1,1.2,0.4,2.2,0.9,3.1c0.5,0.9,1.2,1.7,2.1,2.3c0.9,0.6,1.8,1.1,2.9,1.4
						c1.1,0.3,2.3,0.4,3.5,0.4c0.7,0,1.3-0.1,1.8-0.2c0.5-0.1,1-0.3,1.4-0.4c0.4-0.2,0.8-0.3,1.1-0.5c-0.2-0.3-0.3-0.4-0.5-0.7
						c-0.3,0.2-0.6,0.4-1,0.5c-0.3,0.1-0.7,0.3-1.2,0.4c-0.5,0.1-1,0.2-1.6,0.2c-1.2,0.1-2.4-0.1-3.4-0.4c-1-0.3-1.9-0.8-2.6-1.3
						c-0.7-0.6-1.3-1.3-1.7-2.1C31.5,20.2,31.3,19.3,31.2,18.4z"/>
					<path class="st0" d="M47.9,7.4c5.4-0.3,8.1-0.4,13.5-0.7c0.1,2.2,0.1,3.2,0.2,5.4c-2.5,0.1-3.7,0.1-6.1,0.3
						c0,0.9,0.1,1.4,0.1,2.3c2.4-0.1,3.6-0.1,6-0.2c0.1,2,0.1,3.1,0.2,5.1c-2.4,0.1-3.6,0.1-6,0.2c0,0.9,0.1,1.4,0.1,2.3
						c2.5-0.1,3.8-0.1,6.3-0.2c0.1,2.2,0.1,3.2,0.2,5.4c-5.4,0.1-8.1,0.2-13.5,0.4C48.4,19.5,48.3,15.4,47.9,7.4z M59.7,24.8
						c0-0.3,0-0.4,0-0.7c-2.7,0.1-4.1,0.1-6.8,0.2c-0.1-2.7-0.2-4-0.3-6.7c2.6-0.1,3.9-0.2,6.5-0.2c0-0.3,0-0.4,0-0.7
						c-2.6,0.1-3.9,0.1-6.5,0.3c-0.1-2.6-0.2-3.9-0.3-6.6c2.7-0.1,4.1-0.2,6.8-0.3c0-0.3,0-0.4,0-0.7c-3.1,0.1-4.6,0.2-7.7,0.4
						c0.3,6.2,0.4,9.2,0.6,15.4C55.1,24.9,56.6,24.8,59.7,24.8z"/>
					<path class="st0" d="M63.7,6.6c3-0.1,4.6-0.2,7.6-0.3c0.2,6.1,0.2,9.2,0.4,15.3c2.5-0.1,3.7-0.1,6.2-0.1c0,2.2,0.1,3.3,0.1,5.5
						c-5.5,0.1-8.2,0.1-13.7,0.2C64.1,18.9,63.9,14.8,63.7,6.6z M76.1,24.4c0-0.3,0-0.4,0-0.7c-3,0-4.5,0.1-7.6,0.1
						c-0.2-6-0.2-9-0.4-14.9c-0.4,0-0.5,0-0.9,0c0.2,6.3,0.3,9.4,0.4,15.7C71,24.5,72.7,24.5,76.1,24.4z"/>
					<path class="st0" d="M78.8,6c5.4-0.2,8.1-0.2,13.5-0.3c0,2.2,0,3.3,0,5.6c-2.5,0-3.7,0.1-6.2,0.1c0,0.9,0,1.4,0,2.3
						c2.4,0,3.6-0.1,6-0.1c0,2.1,0,3.2,0,5.3c-2.4,0-3.6,0-6,0.1c0,1,0,1.5,0,2.4c2.5,0,3.8,0,6.3,0c0,2.2,0,3.3,0,5.6
						c-5.4,0-8.1,0-13.5,0C79,18.5,79,14.4,78.8,6z M90.2,24.3c0-0.3,0-0.5,0-0.8c-2.7,0-4.1,0-6.8,0c0-2.8-0.1-4.1-0.1-6.9
						c2.6,0,3.9-0.1,6.5-0.1c0-0.3,0-0.5,0-0.8c-2.6,0-3.9,0-6.5,0.1c0-2.7-0.1-4.1-0.1-6.8C85.9,9.1,87.3,9.1,90,9
						c0-0.3,0-0.5,0-0.8c-3.1,0.1-4.6,0.1-7.7,0.2c0.1,6.4,0.1,9.6,0.2,15.9C85.6,24.3,87.1,24.3,90.2,24.3z"/>
					<path class="st0" d="M94.6,5.6c3.6-0.1,5.4-0.1,9-0.1c1.1,0,2.2,0.1,3.1,0.3c0.9,0.2,1.8,0.6,2.4,1.1c0.7,0.5,1.2,1.1,1.6,1.8
						c0.4,0.7,0.6,1.6,0.5,2.5c0,0.7-0.1,1.3-0.3,1.8c-0.2,0.5-0.4,0.9-0.6,1.2c-0.3,0.4-0.5,0.7-0.9,1c0.5,0.3,0.9,0.7,1.4,1.2
						c0.3,0.4,0.6,0.9,0.9,1.6c0.3,0.6,0.4,1.4,0.4,2.3c0,1-0.2,2-0.6,2.8c-0.4,0.8-0.9,1.5-1.7,2.1c-0.7,0.6-1.6,1-2.6,1.3
						c-1,0.3-2.2,0.4-3.4,0.4c-3.7,0-5.5-0.1-9.2-0.1C94.7,18.4,94.6,14.1,94.6,5.6z M102.9,24.4c2,0,3.4-0.4,4.4-1.2
						s1.4-1.9,1.4-3.2c0-0.9-0.2-1.6-0.6-2.1c-0.4-0.5-0.8-0.9-1.3-1.2c-0.6-0.3-1.2-0.6-1.9-0.7c0.5-0.1,1-0.4,1.5-0.7
						c0.4-0.3,0.7-0.7,1-1.1c0.3-0.5,0.5-1.1,0.5-1.9c0-1.4-0.4-2.4-1.4-3.1c-0.9-0.7-2.2-1-3.7-1c-2,0-3,0-4.9,0.1
						c0,6.5,0,9.7,0,16.2C100,24.3,101,24.3,102.9,24.4z M98.9,15.5c0-2.6,0-4,0-6.6c1.6,0,2.4,0,4,0c1.5,0,2.6,0.3,3.2,0.9
						c0.6,0.6,1,1.4,1,2.4c0,1-0.3,1.8-1,2.4c-0.7,0.6-1.7,0.9-3.2,0.9C101.4,15.5,100.5,15.5,98.9,15.5z M99,23.6
						c0-2.9,0-4.4,0-7.3c1.6,0,2.4,0,4,0c0.7,0,1.4,0.1,2,0.2c0.6,0.1,1.1,0.4,1.6,0.6c0.5,0.3,0.8,0.7,1.1,1.2
						c0.3,0.5,0.4,1,0.4,1.7c0,1.3-0.5,2.3-1.4,2.8s-2.1,0.8-3.6,0.8C101.3,23.6,100.5,23.6,99,23.6z M104.2,12c0-1-0.6-1.5-1.7-1.5
						c-0.3,0-0.5,0-0.8,0c0,1.2,0,1.8,0,3c0.3,0,0.5,0,0.8,0C103.6,13.5,104.2,13,104.2,12z M102.5,21.9c1.7,0,2.6-0.6,2.6-1.9
						c0-1.2-0.9-1.9-2.6-1.9c-0.3,0-0.5,0-0.8,0c0,1.5,0,2.2,0,3.7C102,21.9,102.1,21.9,102.5,21.9z"/>
					<path class="st0" d="M113.9,5.4c3.2,0,4.7,0,7.9,0c1.5,0,2.8,0.2,4.1,0.6c1.2,0.4,2.3,0.9,3.2,1.7c0.9,0.7,1.6,1.6,2.1,2.7
						c0.5,1.1,0.7,2.3,0.7,3.7c0,1.1-0.2,2-0.5,2.8c-0.3,0.8-0.7,1.4-1.1,1.9c-0.5,0.6-1,1-1.6,1.4c1.6,2.9,2.4,4.4,4,7.4
						c-3.4-0.1-5.1-0.2-8.4-0.3c-1.3-2.3-2-3.4-3.3-5.6c0,2.2-0.1,3.3-0.1,5.5c-2.9-0.1-4.3-0.1-7.2-0.2
						C113.7,18.4,113.8,14.1,113.9,5.4z M120.8,19.7c0.9,0,1.7-0.1,2.6-0.2c1.3,2.1,1.9,3.2,3.1,5.3c0.4,0,0.6,0,1,0
						c-1.3-2.3-2-3.4-3.3-5.6c1.2-0.4,2.2-1,3-1.9c0.7-0.9,1.1-2,1.2-3.4c0-1-0.2-1.8-0.5-2.5c-0.4-0.7-0.9-1.3-1.6-1.8
						c-0.7-0.5-1.5-0.9-2.4-1.1C123,8.2,122,8.1,121,8c-1.5,0-2.2,0-3.7,0c-0.1,6.6-0.1,9.9-0.2,16.5c0.4,0,0.5,0,0.9,0
						c0-2,0-3,0.1-5C119.1,19.6,119.7,19.6,120.8,19.7z M118,18.8c0.1-4,0.1-6,0.1-10c1.1,0,1.7,0,2.8,0c2.1,0,3.7,0.5,4.9,1.4
						c1.2,0.9,1.7,2.2,1.7,3.8c0,1.6-0.6,2.9-1.8,3.7c-1.2,0.8-2.8,1.2-4.9,1.2C119.7,18.9,119.1,18.9,118,18.8z M121,16.2
						c0.1,0,0.2,0,0.4,0c0.9,0,1.6-0.2,2.2-0.5c0.6-0.4,0.9-1,0.9-1.9c0-0.9-0.3-1.5-0.9-1.9c-0.6-0.4-1.3-0.6-2.2-0.6
						c-0.2,0-0.2,0-0.4,0C121,13.3,121,14.2,121,16.2z"/>
					<path class="st0" d="M133.9,5.5c3.1,0,4.7,0.1,7.8,0.1c-0.3,8.9-0.4,13.4-0.7,22.3c-3-0.1-4.6-0.2-7.6-0.3
						C133.5,18.8,133.6,14.4,133.9,5.5z M137.6,25.2c0.2-6.8,0.3-10.1,0.5-16.9c-0.4,0-0.5,0-0.9,0c-0.2,6.7-0.3,10.1-0.5,16.9
						C137.1,25.1,137.3,25.1,137.6,25.2z"/>
					<path class="st0" d="M146.9,11.7c-1.7-0.1-2.5-0.1-4.2-0.1c0.1-2.3,0.1-3.5,0.2-5.9c6.4,0.1,9.6,0.2,16,0.4
						c-0.1,2.4-0.2,3.6-0.3,5.9c-1.7-0.1-2.5-0.1-4.2-0.2c-0.3,6.7-0.4,10-0.7,16.6c-3-0.2-4.4-0.2-7.4-0.4
						C146.5,21.6,146.6,18.3,146.9,11.7z M150.5,25.7c0.3-6.5,0.4-9.8,0.7-16.3c2,0.1,2.9,0.1,4.9,0.2c0-0.3,0-0.5,0-0.8
						c-4.3-0.1-6.4-0.2-10.7-0.3c0,0.3,0,0.5,0,0.8c2,0.1,2.9,0.1,4.9,0.1c-0.3,6.5-0.4,9.8-0.6,16.3
						C150,25.7,150.1,25.7,150.5,25.7z"/>
					<path class="st0" d="M164.6,19.4c-2.5-5.3-3.8-8-6.4-13.2c3.3,0.1,4.9,0.2,8.1,0.3c1,2,1.4,3,2.4,4.9c1.1-1.9,1.7-2.8,2.9-4.7
						c3.3,0.1,4.9,0.2,8.1,0.4c-3.2,5.1-4.7,7.7-7.9,12.7c-0.2,4-0.3,5.9-0.6,9.9c-2.9-0.2-4.3-0.3-7.2-0.5
						C164.3,25.3,164.4,23.3,164.6,19.4z M168.3,26.7c0.2-3.3,0.3-4.9,0.4-8.2c2.2-3.6,3.3-5.4,5.5-9c-0.4,0-0.6,0-1.1-0.1
						c-1.9,3.2-2.9,4.8-4.8,7.9c-1.6-3.3-2.4-5-4-8.3c-0.4,0-0.6,0-1,0c1.8,3.7,2.7,5.6,4.5,9.4c-0.2,3.3-0.3,4.9-0.4,8.2
						C167.7,26.7,167.9,26.7,168.3,26.7z"/>
				</g>
				<g>
					<linearGradient id="SVGID_1_" gradientUnits="userSpaceOnUse" x1="33.4116" y1="27.4593" x2="76.9875" y2="-48.0164">
						<stop  offset="0" style="stop-color:#FFCF04"/>
						<stop  offset="8.045647e-02" style="stop-color:#FDD41F"/>
						<stop  offset="0.1716" style="stop-color:#FBD937"/>
						<stop  offset="0.2693" style="stop-color:#F9DC47"/>
						<stop  offset="0.3775" style="stop-color:#F8DE51"/>
						<stop  offset="0.5163" style="stop-color:#F8DF54"/>
						<stop  offset="1" style="stop-color:#F9CD16"/>
					</linearGradient>
					<path class="st2" d="M27,18.6c-0.1-1.6,0.1-3,0.7-4.3c0.6-1.3,1.4-2.5,2.4-3.4c1-1,2.3-1.8,3.7-2.4c1.4-0.6,3-0.9,4.6-1
						c1.3-0.1,2.5,0,3.5,0.1c1,0.2,1.9,0.4,2.7,0.6c0.9,0.3,1.6,0.6,2.2,0.9c-1.3,2.3-2,3.5-3.3,5.8c-0.4-0.2-0.8-0.4-1.2-0.6
						c-0.4-0.1-0.9-0.3-1.4-0.4c-0.5-0.1-1.2-0.2-1.8-0.1c-0.7,0-1.3,0.2-1.9,0.4c-0.6,0.3-1.1,0.6-1.5,1c-0.4,0.4-0.7,0.9-1,1.4
						c-0.2,0.5-0.3,1.1-0.3,1.6c0,0.6,0.2,1.1,0.5,1.6s0.7,0.9,1.1,1.3c0.5,0.4,1,0.6,1.6,0.8c0.6,0.2,1.3,0.3,2,0.2
						c0.7,0,1.4-0.1,1.9-0.3c0.6-0.2,1-0.4,1.4-0.6c0.4-0.2,0.8-0.5,1.1-0.8c1.5,2.2,2.3,3.2,3.8,5.4c-0.6,0.5-1.3,0.9-2.1,1.3
						c-0.7,0.3-1.6,0.6-2.6,0.9c-1,0.3-2.2,0.4-3.5,0.5c-1.8,0.1-3.4-0.1-4.9-0.6c-1.5-0.4-2.8-1.1-4-1.9c-1.1-0.9-2-1.9-2.7-3.1
						C27.4,21.5,27,20.2,27,18.6z M31.2,18.4c-0.1-0.9,0.1-1.8,0.4-2.7c0.3-0.9,0.8-1.6,1.5-2.3c0.6-0.7,1.5-1.2,2.4-1.6
						c1-0.4,2-0.7,3.3-0.7c0.6,0,1.1,0,1.6,0c0.5,0,0.9,0.1,1.2,0.2c0.4,0.1,0.7,0.2,1,0.3c0.2-0.3,0.3-0.4,0.4-0.7
						c-0.4-0.1-0.8-0.2-1.2-0.3c-0.4-0.1-0.8-0.1-1.3-0.2c-0.5,0-1.1-0.1-1.8,0c-1.2,0.1-2.3,0.3-3.3,0.7c-1,0.4-1.9,1-2.7,1.7
						c-0.8,0.7-1.4,1.6-1.8,2.5c-0.4,1-0.6,2-0.5,3.2c0.1,1.2,0.4,2.2,0.9,3.1c0.5,0.9,1.2,1.7,2.1,2.3c0.9,0.6,1.8,1.1,2.9,1.4
						c1.1,0.3,2.3,0.4,3.5,0.4c0.7,0,1.3-0.1,1.8-0.2c0.5-0.1,1-0.3,1.4-0.4c0.4-0.2,0.8-0.3,1.1-0.5c-0.2-0.3-0.3-0.4-0.5-0.7
						c-0.3,0.2-0.6,0.4-1,0.5c-0.3,0.1-0.7,0.3-1.2,0.4c-0.5,0.1-1,0.2-1.6,0.2c-1.2,0.1-2.4-0.1-3.4-0.4c-1-0.3-1.9-0.8-2.6-1.3
						c-0.7-0.6-1.3-1.3-1.7-2.1C31.5,20.2,31.3,19.3,31.2,18.4z"/>
					<linearGradient id="SVGID_2_" gradientUnits="userSpaceOnUse" x1="45.7184" y1="33.4826" x2="89.3311" y2="-42.0568">
						<stop  offset="0" style="stop-color:#FFCF04"/>
						<stop  offset="8.045647e-02" style="stop-color:#FDD41F"/>
						<stop  offset="0.1716" style="stop-color:#FBD937"/>
						<stop  offset="0.2693" style="stop-color:#F9DC47"/>
						<stop  offset="0.3775" style="stop-color:#F8DE51"/>
						<stop  offset="0.5163" style="stop-color:#F8DF54"/>
						<stop  offset="1" style="stop-color:#F9CD16"/>
					</linearGradient>
					<path class="st3" d="M47.9,7.4c5.4-0.3,8.1-0.4,13.5-0.7c0.1,2.2,0.1,3.2,0.2,5.4c-2.5,0.1-3.7,0.1-6.1,0.3
						c0,0.9,0.1,1.4,0.1,2.3c2.4-0.1,3.6-0.1,6-0.2c0.1,2,0.1,3.1,0.2,5.1c-2.4,0.1-3.6,0.1-6,0.2c0,0.9,0.1,1.4,0.1,2.3
						c2.5-0.1,3.8-0.1,6.3-0.2c0.1,2.2,0.1,3.2,0.2,5.4c-5.4,0.1-8.1,0.2-13.5,0.4C48.4,19.5,48.3,15.4,47.9,7.4z M59.7,24.8
						c0-0.3,0-0.4,0-0.7c-2.7,0.1-4.1,0.1-6.8,0.2c-0.1-2.7-0.2-4-0.3-6.7c2.6-0.1,3.9-0.2,6.5-0.2c0-0.3,0-0.4,0-0.7
						c-2.6,0.1-3.9,0.1-6.5,0.3c-0.1-2.6-0.2-3.9-0.3-6.6c2.7-0.1,4.1-0.2,6.8-0.3c0-0.3,0-0.4,0-0.7c-3.1,0.1-4.6,0.2-7.7,0.4
						c0.3,6.2,0.4,9.2,0.6,15.4C55.1,24.9,56.6,24.8,59.7,24.8z"/>
					<linearGradient id="SVGID_3_" gradientUnits="userSpaceOnUse" x1="57.6289" y1="39.6144" x2="101.1875" y2="-35.8313">
						<stop  offset="0" style="stop-color:#FFCF04"/>
						<stop  offset="8.045647e-02" style="stop-color:#FDD41F"/>
						<stop  offset="0.1716" style="stop-color:#FBD937"/>
						<stop  offset="0.2693" style="stop-color:#F9DC47"/>
						<stop  offset="0.3775" style="stop-color:#F8DE51"/>
						<stop  offset="0.5163" style="stop-color:#F8DF54"/>
						<stop  offset="1" style="stop-color:#F9CD16"/>
					</linearGradient>
					<path class="st4" d="M63.7,6.6c3-0.1,4.6-0.2,7.6-0.3c0.2,6.1,0.2,9.2,0.4,15.3c2.5-0.1,3.7-0.1,6.2-0.1c0,2.2,0.1,3.3,0.1,5.5
						c-5.5,0.1-8.2,0.1-13.7,0.2C64.1,18.9,63.9,14.8,63.7,6.6z M76.1,24.4c0-0.3,0-0.4,0-0.7c-3,0-4.5,0.1-7.6,0.1
						c-0.2-6-0.2-9-0.4-14.9c-0.4,0-0.5,0-0.9,0c0.2,6.3,0.3,9.4,0.4,15.7C71,24.5,72.7,24.5,76.1,24.4z"/>
					<linearGradient id="SVGID_4_" gradientUnits="userSpaceOnUse" x1="68.6323" y1="46.0678" x2="113.2832" y2="-31.2699">
						<stop  offset="0" style="stop-color:#FFCF04"/>
						<stop  offset="8.045647e-02" style="stop-color:#FDD41F"/>
						<stop  offset="0.1716" style="stop-color:#FBD937"/>
						<stop  offset="0.2693" style="stop-color:#F9DC47"/>
						<stop  offset="0.3775" style="stop-color:#F8DE51"/>
						<stop  offset="0.5163" style="stop-color:#F8DF54"/>
						<stop  offset="1" style="stop-color:#F9CD16"/>
					</linearGradient>
					<path class="st5" d="M78.8,6c5.4-0.2,8.1-0.2,13.5-0.3c0,2.2,0,3.3,0,5.6c-2.5,0-3.7,0.1-6.2,0.1c0,0.9,0,1.4,0,2.3
						c2.4,0,3.6-0.1,6-0.1c0,2.1,0,3.2,0,5.3c-2.4,0-3.6,0-6,0.1c0,1,0,1.5,0,2.4c2.5,0,3.8,0,6.3,0c0,2.2,0,3.3,0,5.6
						c-5.4,0-8.1,0-13.5,0C79,18.5,79,14.4,78.8,6z M90.2,24.3c0-0.3,0-0.5,0-0.8c-2.7,0-4.1,0-6.8,0c0-2.8-0.1-4.1-0.1-6.9
						c2.6,0,3.9-0.1,6.5-0.1c0-0.3,0-0.5,0-0.8c-2.6,0-3.9,0-6.5,0.1c0-2.7-0.1-4.1-0.1-6.8C85.9,9.1,87.3,9.1,90,9
						c0-0.3,0-0.5,0-0.8c-3.1,0.1-4.6,0.1-7.7,0.2c0.1,6.4,0.1,9.6,0.2,15.9C85.6,24.3,87.1,24.3,90.2,24.3z"/>
					<linearGradient id="SVGID_5_" gradientUnits="userSpaceOnUse" x1="80.6263" y1="53.269" x2="125.8044" y2="-24.9819">
						<stop  offset="0" style="stop-color:#FFCF04"/>
						<stop  offset="8.045647e-02" style="stop-color:#FDD41F"/>
						<stop  offset="0.1716" style="stop-color:#FBD937"/>
						<stop  offset="0.2693" style="stop-color:#F9DC47"/>
						<stop  offset="0.3775" style="stop-color:#F8DE51"/>
						<stop  offset="0.5163" style="stop-color:#F8DF54"/>
						<stop  offset="1" style="stop-color:#F9CD16"/>
					</linearGradient>
					<path class="st6" d="M94.6,5.6c3.6-0.1,5.4-0.1,9-0.1c1.1,0,2.2,0.1,3.1,0.3c0.9,0.2,1.8,0.6,2.4,1.1c0.7,0.5,1.2,1.1,1.6,1.8
						c0.4,0.7,0.6,1.6,0.5,2.5c0,0.7-0.1,1.3-0.3,1.8c-0.2,0.5-0.4,0.9-0.6,1.2c-0.3,0.4-0.5,0.7-0.9,1c0.5,0.3,0.9,0.7,1.4,1.2
						c0.3,0.4,0.6,0.9,0.9,1.6c0.3,0.6,0.4,1.4,0.4,2.3c0,1-0.2,2-0.6,2.8c-0.4,0.8-0.9,1.5-1.7,2.1c-0.7,0.6-1.6,1-2.6,1.3
						c-1,0.3-2.2,0.4-3.4,0.4c-3.7,0-5.5-0.1-9.2-0.1C94.7,18.4,94.6,14.1,94.6,5.6z M102.9,24.4c2,0,3.4-0.4,4.4-1.2
						s1.4-1.9,1.4-3.2c0-0.9-0.2-1.6-0.6-2.1c-0.4-0.5-0.8-0.9-1.3-1.2c-0.6-0.3-1.2-0.6-1.9-0.7c0.5-0.1,1-0.4,1.5-0.7
						c0.4-0.3,0.7-0.7,1-1.1c0.3-0.5,0.5-1.1,0.5-1.9c0-1.4-0.4-2.4-1.4-3.1c-0.9-0.7-2.2-1-3.7-1c-2,0-3,0-4.9,0.1
						c0,6.5,0,9.7,0,16.2C100,24.3,101,24.3,102.9,24.4z M98.9,15.5c0-2.6,0-4,0-6.6c1.6,0,2.4,0,4,0c1.5,0,2.6,0.3,3.2,0.9
						c0.6,0.6,1,1.4,1,2.4c0,1-0.3,1.8-1,2.4c-0.7,0.6-1.7,0.9-3.2,0.9C101.4,15.5,100.5,15.5,98.9,15.5z M99,23.6
						c0-2.9,0-4.4,0-7.3c1.6,0,2.4,0,4,0c0.7,0,1.4,0.1,2,0.2c0.6,0.1,1.1,0.4,1.6,0.6c0.5,0.3,0.8,0.7,1.1,1.2
						c0.3,0.5,0.4,1,0.4,1.7c0,1.3-0.5,2.3-1.4,2.8s-2.1,0.8-3.6,0.8C101.3,23.6,100.5,23.6,99,23.6z M104.2,12c0-1-0.6-1.5-1.7-1.5
						c-0.3,0-0.5,0-0.8,0c0,1.2,0,1.8,0,3c0.3,0,0.5,0,0.8,0C103.6,13.5,104.2,13,104.2,12z M102.5,21.9c1.7,0,2.6-0.6,2.6-1.9
						c0-1.2-0.9-1.9-2.6-1.9c-0.3,0-0.5,0-0.8,0c0,1.5,0,2.2,0,3.7C102,21.9,102.1,21.9,102.5,21.9z"/>
					<linearGradient id="SVGID_6_" gradientUnits="userSpaceOnUse" x1="96.317" y1="63.1593" x2="142.0757" y2="-16.0972">
						<stop  offset="0" style="stop-color:#FFCF04"/>
						<stop  offset="8.045647e-02" style="stop-color:#FDD41F"/>
						<stop  offset="0.1716" style="stop-color:#FBD937"/>
						<stop  offset="0.2693" style="stop-color:#F9DC47"/>
						<stop  offset="0.3775" style="stop-color:#F8DE51"/>
						<stop  offset="0.5163" style="stop-color:#F8DF54"/>
						<stop  offset="1" style="stop-color:#F9CD16"/>
					</linearGradient>
					<path class="st7" d="M113.9,5.4c3.2,0,4.7,0,7.9,0c1.5,0,2.8,0.2,4.1,0.6c1.2,0.4,2.3,0.9,3.2,1.7c0.9,0.7,1.6,1.6,2.1,2.7
						c0.5,1.1,0.7,2.3,0.7,3.7c0,1.1-0.2,2-0.5,2.8c-0.3,0.8-0.7,1.4-1.1,1.9c-0.5,0.6-1,1-1.6,1.4c1.6,2.9,2.4,4.4,4,7.4
						c-3.4-0.1-5.1-0.2-8.4-0.3c-1.3-2.3-2-3.4-3.3-5.6c0,2.2-0.1,3.3-0.1,5.5c-2.9-0.1-4.3-0.1-7.2-0.2
						C113.7,18.4,113.8,14.1,113.9,5.4z M120.8,19.7c0.9,0,1.7-0.1,2.6-0.2c1.3,2.1,1.9,3.2,3.1,5.3c0.4,0,0.6,0,1,0
						c-1.3-2.3-2-3.4-3.3-5.6c1.2-0.4,2.2-1,3-1.9c0.7-0.9,1.1-2,1.2-3.4c0-1-0.2-1.8-0.5-2.5c-0.4-0.7-0.9-1.3-1.6-1.8
						c-0.7-0.5-1.5-0.9-2.4-1.1C123,8.2,122,8.1,121,8c-1.5,0-2.2,0-3.7,0c-0.1,6.6-0.1,9.9-0.2,16.5c0.4,0,0.5,0,0.9,0
						c0-2,0-3,0.1-5C119.1,19.6,119.7,19.6,120.8,19.7z M118,18.8c0.1-4,0.1-6,0.1-10c1.1,0,1.7,0,2.8,0c2.1,0,3.7,0.5,4.9,1.4
						c1.2,0.9,1.7,2.2,1.7,3.8c0,1.6-0.6,2.9-1.8,3.7c-1.2,0.8-2.8,1.2-4.9,1.2C119.7,18.9,119.1,18.9,118,18.8z M121,16.2
						c0.1,0,0.2,0,0.4,0c0.9,0,1.6-0.2,2.2-0.5c0.6-0.4,0.9-1,0.9-1.9c0-0.9-0.3-1.5-0.9-1.9c-0.6-0.4-1.3-0.6-2.2-0.6
						c-0.2,0-0.2,0-0.4,0C121,13.3,121,14.2,121,16.2z"/>
					<linearGradient id="SVGID_7_" gradientUnits="userSpaceOnUse" x1="106.1621" y1="70.8526" x2="152.9424" y2="-10.1733">
						<stop  offset="0" style="stop-color:#FFCF04"/>
						<stop  offset="8.045647e-02" style="stop-color:#FDD41F"/>
						<stop  offset="0.1716" style="stop-color:#FBD937"/>
						<stop  offset="0.2693" style="stop-color:#F9DC47"/>
						<stop  offset="0.3775" style="stop-color:#F8DE51"/>
						<stop  offset="0.5163" style="stop-color:#F8DF54"/>
						<stop  offset="1" style="stop-color:#F9CD16"/>
					</linearGradient>
					<path class="st8" d="M133.9,5.5c3.1,0,4.7,0.1,7.8,0.1c-0.3,8.9-0.4,13.4-0.7,22.3c-3-0.1-4.6-0.2-7.6-0.3
						C133.5,18.8,133.6,14.4,133.9,5.5z M137.6,25.2c0.2-6.8,0.3-10.1,0.5-16.9c-0.4,0-0.5,0-0.9,0c-0.2,6.7-0.3,10.1-0.5,16.9
						C137.1,25.1,137.3,25.1,137.6,25.2z"/>
					<linearGradient id="SVGID_8_" gradientUnits="userSpaceOnUse" x1="113.9449" y1="76.5549" x2="160.9948" y2="-4.9378">
						<stop  offset="0" style="stop-color:#FFCF04"/>
						<stop  offset="8.045647e-02" style="stop-color:#FDD41F"/>
						<stop  offset="0.1716" style="stop-color:#FBD937"/>
						<stop  offset="0.2693" style="stop-color:#F9DC47"/>
						<stop  offset="0.3775" style="stop-color:#F8DE51"/>
						<stop  offset="0.5163" style="stop-color:#F8DF54"/>
						<stop  offset="1" style="stop-color:#F9CD16"/>
					</linearGradient>
					<path class="st9" d="M146.9,11.7c-1.7-0.1-2.5-0.1-4.2-0.1c0.1-2.3,0.1-3.5,0.2-5.9c6.4,0.1,9.6,0.2,16,0.4
						c-0.1,2.4-0.2,3.6-0.3,5.9c-1.7-0.1-2.5-0.1-4.2-0.2c-0.3,6.7-0.4,10-0.7,16.6c-3-0.2-4.4-0.2-7.4-0.4
						C146.5,21.6,146.6,18.3,146.9,11.7z M150.5,25.7c0.3-6.5,0.4-9.8,0.7-16.3c2,0.1,2.9,0.1,4.9,0.2c0-0.3,0-0.5,0-0.8
						c-4.3-0.1-6.4-0.2-10.7-0.3c0,0.3,0,0.5,0,0.8c2,0.1,2.9,0.1,4.9,0.1c-0.3,6.5-0.4,9.8-0.6,16.3
						C150,25.7,150.1,25.7,150.5,25.7z"/>
					<linearGradient id="SVGID_9_" gradientUnits="userSpaceOnUse" x1="125.7357" y1="85.4011" x2="173.1507" y2="3.2759">
						<stop  offset="0" style="stop-color:#FFCF04"/>
						<stop  offset="8.045647e-02" style="stop-color:#FDD41F"/>
						<stop  offset="0.1716" style="stop-color:#FBD937"/>
						<stop  offset="0.2693" style="stop-color:#F9DC47"/>
						<stop  offset="0.3775" style="stop-color:#F8DE51"/>
						<stop  offset="0.5163" style="stop-color:#F8DF54"/>
						<stop  offset="1" style="stop-color:#F9CD16"/>
					</linearGradient>
					<path class="st10" d="M164.6,19.4c-2.5-5.3-3.8-8-6.4-13.2c3.3,0.1,4.9,0.2,8.1,0.3c1,2,1.4,3,2.4,4.9c1.1-1.9,1.7-2.8,2.9-4.7
						c3.3,0.1,4.9,0.2,8.1,0.4c-3.2,5.1-4.7,7.7-7.9,12.7c-0.2,4-0.3,5.9-0.6,9.9c-2.9-0.2-4.3-0.3-7.2-0.5
						C164.3,25.3,164.4,23.3,164.6,19.4z M168.3,26.7c0.2-3.3,0.3-4.9,0.4-8.2c2.2-3.6,3.3-5.4,5.5-9c-0.4,0-0.6,0-1.1-0.1
						c-1.9,3.2-2.9,4.8-4.8,7.9c-1.6-3.3-2.4-5-4-8.3c-0.4,0-0.6,0-1,0c1.8,3.7,2.7,5.6,4.5,9.4c-0.2,3.3-0.3,4.9-0.4,8.2
						C167.7,26.7,167.9,26.7,168.3,26.7z"/>
				</g>
			</g>
		</g>
		<g>
			<path class="st11" d="M3.4,18.2l-1.9-3.4h2.2l0.7,1.2l0.7-1.2h2.2l-1.9,3.4v2.5h-2V18.2z"/>
			<path class="st11" d="M6.7,17.8c0-0.4,0.1-0.8,0.3-1.2s0.4-0.7,0.7-1c0.3-0.3,0.6-0.5,1-0.7c0.4-0.2,0.8-0.2,1.3-0.2
				c0.4,0,0.9,0.1,1.3,0.2c0.4,0.2,0.7,0.4,1,0.7c0.3,0.3,0.5,0.6,0.7,1s0.3,0.8,0.3,1.2c0,0.4-0.1,0.8-0.3,1.2s-0.4,0.7-0.7,1
				c-0.3,0.3-0.6,0.5-1,0.7c-0.4,0.2-0.8,0.2-1.3,0.2c-0.4,0-0.9-0.1-1.3-0.2c-0.4-0.2-0.7-0.4-1-0.7c-0.3-0.3-0.5-0.6-0.7-1
				S6.7,18.2,6.7,17.8z M8.6,17.8c0,0.2,0,0.3,0.1,0.5s0.2,0.3,0.3,0.4s0.3,0.2,0.4,0.3c0.2,0.1,0.3,0.1,0.5,0.1s0.3,0,0.5-0.1
				c0.2-0.1,0.3-0.2,0.4-0.3s0.2-0.2,0.3-0.4c0.1-0.2,0.1-0.3,0.1-0.5c0-0.2,0-0.3-0.1-0.5c-0.1-0.2-0.2-0.3-0.3-0.4
				c-0.1-0.1-0.3-0.2-0.4-0.3c-0.2-0.1-0.3-0.1-0.5-0.1s-0.3,0-0.5,0.1c-0.2,0.1-0.3,0.2-0.4,0.3c-0.1,0.1-0.2,0.2-0.3,0.4
				C8.6,17.5,8.6,17.6,8.6,17.8z"/>
			<path class="st11" d="M16.2,20.9c-0.4,0-0.7,0-1.1-0.1c-0.3-0.1-0.6-0.2-0.8-0.4c-0.2-0.2-0.4-0.4-0.5-0.7
				c-0.1-0.3-0.2-0.6-0.2-1v-3.8h2v3.7c0,0.2,0,0.4,0.1,0.5s0.2,0.2,0.5,0.2c0.2,0,0.4-0.1,0.5-0.2c0.1-0.1,0.1-0.3,0.1-0.5v-3.7h2
				v3.8c0,0.4-0.1,0.7-0.2,1c-0.1,0.3-0.3,0.5-0.5,0.7c-0.2,0.2-0.5,0.3-0.8,0.4S16.6,20.9,16.2,20.9z"/>
			<path class="st11" d="M19.4,14.9h2.1c0.4,0,0.8,0.1,1.1,0.2c0.3,0.1,0.6,0.2,0.9,0.4c0.2,0.2,0.4,0.4,0.6,0.7
				c0.1,0.3,0.2,0.6,0.2,1c0,0.3,0,0.5-0.1,0.8c-0.1,0.2-0.2,0.4-0.3,0.5c-0.1,0.2-0.3,0.3-0.4,0.4l1.2,1.9h-2.3l-0.9-1.5v1.5h-2
				V14.9z M21.4,17.8h0.1c0.2,0,0.4,0,0.6-0.2s0.2-0.3,0.2-0.5s-0.1-0.4-0.2-0.5s-0.4-0.2-0.6-0.2h-0.1V17.8z"/>
		</g>
		<g>
			<path class="st11" d="M178,14.9h1.6l1.6,2.3l1.6-2.3h1.6v5.9h-2v-2.1l-1.3,1.8l-1.3-1.8v2.1h-2V14.9z"/>
			<path class="st11" d="M187,14.9h1.5l2.4,5.9h-2l-0.2-0.5h-1.9l-0.2,0.5h-2L187,14.9z M188.2,18.9l-0.4-1l-0.4,1H188.2z"/>
			<path class="st11" d="M191.1,16.4H190v-1.6h4.3v1.6h-1.1v4.4h-2V16.4z"/>
			<path class="st11" d="M194.2,17.8c0-0.5,0.1-0.9,0.3-1.3c0.2-0.4,0.4-0.7,0.7-1s0.6-0.5,1-0.6c0.4-0.1,0.8-0.2,1.3-0.2
				c0.4,0,0.7,0,0.9,0.1c0.3,0.1,0.5,0.1,0.7,0.2c0.2,0.1,0.4,0.2,0.6,0.3l-1,1.6c-0.1-0.1-0.2-0.1-0.3-0.2c-0.1,0-0.2-0.1-0.4-0.1
				c-0.1,0-0.3-0.1-0.5-0.1c-0.2,0-0.4,0-0.5,0.1c-0.2,0.1-0.3,0.2-0.4,0.3c-0.1,0.1-0.2,0.2-0.3,0.4c-0.1,0.2-0.1,0.3-0.1,0.5
				c0,0.2,0,0.3,0.1,0.5s0.2,0.3,0.3,0.4s0.3,0.2,0.4,0.3c0.2,0.1,0.4,0.1,0.5,0.1s0.4,0,0.5-0.1c0.2,0,0.3-0.1,0.4-0.2
				c0.1-0.1,0.2-0.1,0.3-0.2l1,1.6c-0.2,0.1-0.4,0.2-0.6,0.3c-0.2,0.1-0.4,0.2-0.7,0.2c-0.3,0.1-0.6,0.1-1,0.1
				c-0.5,0-0.9-0.1-1.3-0.2c-0.4-0.2-0.8-0.4-1.1-0.6s-0.5-0.6-0.7-1C194.3,18.7,194.2,18.3,194.2,17.8z"/>
			<path class="st11" d="M200.1,14.9h2v2h1.1v-2h2v5.9h-2v-2.2h-1.1v2.2h-2V14.9z"/>
		</g>
	</g>
	<polygon class="st0" points="180.1,24.4 180.1,27 182.3,28.5 179.8,29.3 179,31.8 177.5,29.6 174.9,29.7 176.4,27.6 175.6,25.1 
		178.1,25.9 	"/>
	<polygon class="st0" points="172.3,31.1 173.3,32.6 175.1,32.7 173.9,34.1 174.4,35.9 172.7,35.2 171.2,36.2 171.3,34.4 
		169.9,33.2 171.7,32.8 	"/>
	<polygon class="st12" points="182,33.1 181.6,34.4 182.5,35.5 181.1,35.6 180.4,36.8 179.9,35.5 178.5,35.1 179.6,34.3 179.5,32.8 
		180.7,33.6 	"/>
	<polygon class="st0" points="32.3,3 30.6,5 31.4,7.5 28.9,6.6 26.8,8 26.9,5.4 24.8,3.8 27.4,3.2 28.2,0.7 29.7,2.9 	"/>
	<polygon class="st12" points="21.8,3 21.6,4.8 23,6 21.2,6.4 20.5,8.1 19.6,6.5 17.8,6.3 19,5 18.6,3.2 20.2,4 	"/>
	<polygon class="st0" points="25.4,10.9 24.3,11.7 24.4,13.2 23.2,12.3 21.9,12.8 22.3,11.5 21.4,10.4 22.8,10.3 23.6,9.2 
		24.1,10.5 	"/>
</g>
</svg>
