<?xml version="1.0" encoding="utf-8"?>
<!-- Generator: Adobe Illustrator 17.1.0, SVG Export Plug-In . SVG Version: 6.00 Build 0)  -->
<!DOCTYPE svg PUBLIC "-//W3C//DTD SVG 1.1//EN" "http://www.w3.org/Graphics/SVG/1.1/DTD/svg11.dtd">
<svg version="1.1" id="Layer_1" xmlns="http://www.w3.org/2000/svg" xmlns:xlink="http://www.w3.org/1999/xlink" x="0px" y="0px"
	 viewBox="0 0 911 912" enable-background="new 0 0 911 912" xml:space="preserve">
<g opacity="0.24">
	<path fill="#FFFFFF" d="M520.8,599.9c-18.6-36.5-38.9-71.2-61.1-104.9c-22.1-33.6-46.4-65.7-72-96.6c5.9-6.4,5.9-6.3,10.8-0.1
		c14.9,18.7,30.7,36.8,44.7,56.2c17.5,24.2,34.2,49,50.1,74.2c12.3,19.6,22.7,40.3,33.9,60.5c1.5,2.8,2.6,3.5,5.5,1.1
		c20.3-16.2,41-31.9,61-48.4c15.2-12.5,29.8-25.6,44.1-39.1c18.9-17.7,37.9-35.4,55.9-54c15.8-16.4,30.4-33.9,45.4-51.1
		c5.6-6.4,10.9-13.1,16.7-20.1c1.9,2.6,4,5.1,5.7,7.8c0.5,0.9,0.3,2.9-0.4,3.7c-8.7,10.5-17.1,21.4-26.4,31.4
		c-22.8,24.3-45.7,48.7-69.3,72.2c-14,14-29.4,26.6-44.3,39.6c-12.6,10.9-25.2,21.7-38.2,32.1c-13.8,11.1-28.1,21.6-42.2,32.3
		c-2.2,1.7-4.5,3.3-6.8,5c3.6,7.6,7.1,15.1,10.5,22.6c3.7,8.1,7.3,16.3,10.6,24.6c0.5,1.2,0,3.5-1,4.5c-1.7,1.9-4.1,3.3-6.3,5
		c-7.6-16.7-15-33.2-22.6-50c-13,8.8-25.1,17.1-37.3,25.3c-3.3,2.2-7.7,3.5-9.7,6.4c-1.9,2.7-1.1,7.2-1.9,10.8
		c-2.5,10.8-13.9,16.7-23,10.9c-7.5-4.8-11.6,0.9-16.5,3.4c-28.4,14.7-56.4,30.4-85.1,44.5c-19.8,9.7-40.5,17.7-60.9,26
		c-33.6,13.5-68.1,24-104.3,32.8c2.1,3.1,3.8,6.1,5.9,8.6c14.3,16.5,28.3,33.3,43.3,49.1c13.2,13.9,27.6,26.7,41.6,39.9
		c4.7,4.4,9.9,8.3,14.6,12.7c2.5,2.3,4.6,3,8,1.8c7.2-2.5,14.5,0.2,18.5,6.4c3.8,6,3.6,14.6-0.7,19.5c-5.3,6.2-12.9,7.9-20.2,4.4
		c-6.1-2.9-9.9-10.5-9-17.1c0.2-1.9-1-4.3-2.2-6c-0.9-1.4-2.9-2.2-4.2-3.4c-4.4-4-9.8-6.6-8.1-15.1c1.3-6.7-5.1-11.2-12.7-10.2
		c-5.2,0.7-8.7-1.1-11.7-4.4c-13.8-15-27.8-29.8-41.2-45.2c-10.2-11.7-19.4-24.2-29.3-36.2c-1.1-1.3-3.9-2.1-5.7-1.8
		c-7.4,1.2-14.7,3-22,4.4c-0.6,0.1-1.4-0.9-2.9-1.8c9.4-2.1,17.6-3.9,26.8-6c-4.4-6.7-8.5-12.6-12.2-18.7
		c-8.4-13.6-17.2-27.1-24.8-41.1c-18-33.3-32.6-68.2-44.1-104.2c-4-12.6-8.1-25.2-10.8-38c-1.6-7.6-6.7-12.1-11.1-17.2
		c-15.6-18.1-29.3-37.4-40.8-58.3c-4.1-7.5-7.1-15.7-10.7-23.5c-0.9-1.9-2.1-3.6-3.9-6.5C9.1,496.8,5.9,532.2,3.2,567.9
		c-0.3-1.5-1-3-1-4.4c0.4-14.8,0.3-29.6,1.4-44.3c1.4-18.2,3.8-36.3,5.9-54.4c0.3-2.9,1.1-5.8,1.9-8.6c1.4-5.1,0.4-9.9-1.2-14.8
		C4.5,423.4,0,405,0,386.1c0-8.9,1.9-17.9,3-26.8c0.3-2.7,0.9-5.5,1.3-8.2c-0.4-0.1-0.8-0.2-1.2-0.3c-1.4,4.5-2.7,9.1-4,13.4
		c0.9-29.5,8.6-81.4,48-132.5c-7.2,14.9-14.8,29.7-21.5,44.9c-6.8,15.3-11.1,31.4-13.7,47.9c-2.6,16.6-4.5,33.2-3.3,50.3
		c1.2,16.7,3.4,33.1,8.1,50.1c0.9-1.8,1.5-2.7,1.8-3.7c4.7-16.3,8.8-32.8,14.1-48.8c4.6-14,9.9-27.8,16-41.1c8-17.4,16.2-35,26-51.4
		c11.7-19.5,24.9-38.1,38-56.7c6.5-9.2,14.1-17.8,21.6-26.3c7.5-8.5,15-16.9,23.2-24.6c11.7-11,24-21.2,36-31.8
		c18.6-16.3,38.7-30.3,59.5-43.6c25.8-16.5,52.6-31.1,80.6-43.2c20.7-8.9,41.8-17.2,62.9-24.9c13-4.8,26.6-8.1,39.9-12.1
		c2.5-0.8,4.4-1.6,5.2-5c1.4-6.2,5.8-10.3,12.1-11.4c7.2-1.3,13.7,0.6,17.9,7c3.5,5.4,3.7,10.9,0.9,17.3c-4.8,10.8-21.6,11.5-28,2.7
		c-1.7-2.4-3.1-2.3-5.6-1.6c-34.8,10-68.5,23.1-101.3,38.3c-25.2,11.7-49.6,24.9-72.8,39.9c-15.9,10.3-31.7,21-47,32.2
		c-11.1,8.2-21.4,17.5-31.9,26.6c-8.2,7.1-16.5,14.4-24.1,22.2c-9.7,9.9-19.1,20.2-27.9,30.9c-11.8,14.3-23.2,28.9-34.1,44
		c-17.6,24.3-32,50.4-43.8,78c-2.3,5.4-4.6,10.9-7.4,16c-5,8.9-4.7,17.9-2.7,27.6c6.3,30.5,11.8,61.1,18.2,91.6
		c4.6,21.9,10.3,43.6,15.3,65.4c1.7,7.5,7.9,11.6,12.3,17c7.1,8.5,14.8,16.6,22.5,24.6c3.8,3.9,7.9,7.6,12.1,11
		c0.9,0.7,3,0.4,4.3-0.1c7.5-2.7,14.9-0.8,19.5,5.2c3.8,5,3.9,14.6,0.1,19.7c-4.7,6.2-12,8.4-19.5,5.7c-7.2-2.6-11.4-9.9-9.7-19.1
		c0.7-3.9-0.7-5.8-3-8c-8.9-8.2-17.8-16.4-26.7-24.6c-0.8-0.7-1.7-1.2-3.6-1.3c3.3,10.3,6.4,20.6,9.8,30.9
		c10.5,31.8,23.5,62.4,39.1,92.1c13.1,25.1,28.6,48.8,45.1,71.8c1,1.3,4.1,2.3,5.7,1.8c20.3-6.1,40.8-12,60.8-18.9
		c18.2-6.3,36.1-13.8,53.9-21c10-4,20.1-8.1,29.6-13.1c30.3-15.7,60.4-31.8,90.5-47.8c6.1-3.2,11.9-7,17.9-10.2
		c2.5-1.3,3.7-2.9,3.4-5.8c-1.2-15.1,15.6-22.4,26-15.4c0.9,0.6,3.3,0,4.5-0.8C489.5,621.4,504.9,610.8,520.8,599.9z M42.8,368.6
		c-2.6,7.3-5.5,14-7.5,21c-4.9,16.7-9.4,33.5-14,50.3c-0.4,1.6,0,3.6,0.7,5.1c3.2,7.1,6.8,14,9.9,21.1c8.8,20.4,21,38.8,33.7,57
		c2.5,3.5,5.4,6.7,8.3,10.4C63.4,478.3,53.1,423.8,42.8,368.6z"/>
	<path fill="#FFFFFF" d="M328.4,119.7c2.4-0.1,4.7-0.4,7.1-0.3c3.6,0.2,7.2,0.6,10.8,0.9c20.1,1.3,40.3,2.5,60.4,4
		c13.7,1,27.4,2.1,40.9,4.1c23.1,3.5,46.2,7.5,69.1,11.9c30,5.8,59.2,14.5,88,24.8c9,3.2,18.3,6.1,26.6,10.6
		c7.6,4.1,14.3,3.1,22,1.1c20.4-5.3,40.8-11,61.5-14.4c16.2-2.6,33-2.3,49.6-2.3c3.3,0,6.6,5,9.7,7.8c1.2,1.1,1.8,2.7,3,4.6
		c-20.8-3.2-41.1-3.3-61.3,0.2c-19.9,3.5-39.6,8.1-59.4,12.2c0,0.5,0,1.1,0.1,1.6c4.1,2.3,8.3,4.6,12.3,7c9.5,5.7,19,11.3,28.3,17.2
		c11.8,7.6,23.3,15.5,34.9,23.4c1.4,0.9,2.5,2.1,3.8,3.2c4.4,3.6,8,7.8,15.3,5.2c5.8-2.1,15,4.6,12.9,16.1c-0.3,1.6,0.3,3.8,1.3,5
		c11.7,14.2,23.5,28.2,35.3,42.2c0.3,0.4,0.8,0.5,1.5,1c10.3-19.6,18.8-39.5,22.8-61.4c2.6-14.6,1.7-28.7-3.6-42.2
		c-4.2-10.8-12.8-18.4-23.1-23.1c-5.4-2.4-8.5-6.5-12.2-10.4c-1.8-1.9-3.2-4.1-4.8-6.2c0.2-0.5,0.3-0.9,0.5-1.4
		c6.8,2.3,13.8,4.1,20.2,7.1c18.9,9,30.4,24.1,34.4,44.6c3.2,15.9,1.2,31.6-3.2,47c-5.4,18.9-12.6,37.2-22.5,54.3
		c-0.7,1.3-0.6,3.8,0.2,5.2c5.2,9.2,10.9,18.1,16,27.4c2.5,4.6,3.7,10,6.4,14.5c12.2,20.4,19.6,42.9,27.3,65.1
		c3.7,10.7,6.4,21.8,9.5,32.8c0.4,1.6,1,3.1,1.9,6.1c4.7-9.8,8.8-18.4,12.8-27c2.2-4.7,4.8-9.4,6.2-14.4c2.1-7.1,3.7-14.4,4.8-21.7
		c1.7-11.7,1.8-23.4-0.8-35c-2.8-12.3-7.8-23.4-15.9-33.1c-1.4-1.7-2.6-3.6-3.6-5.6c18.7,16,27.4,36.6,27.7,61.1
		c0.1,11.2-0.7,22.1-3.5,33c-0.5,1.9,0.4,4.5,1.3,6.5c5.3,11.1,8.3,22.6,9.5,34.9c2.3,22.5-2.4,43.8-9.6,64.7
		c-3.5,10-8.3,19.6-12.1,29.5c-1.8,4.8-3.5,10.1-3.5,15.2c-0.1,36.3-8,70.7-23.2,103.6c-10.5,22.6-23.7,43.5-41.2,61.4
		c-8.3,8.5-18,15.6-26.1,24.3c-8.5,9-18.5,15.8-28.7,22.6c-23.3,15.5-47.5,29.3-74.6,37.5c-1.2,0.4-2.4,2-2.9,3.2
		c-3.4,8.6-8.5,12-17.5,11.7c-7.2-0.3-12-4.6-14.5-12.7c-1.6-5.1,0.6-12.9,6.5-17c5.7-4,14.7-4.6,18.8,0c4.5,5.1,8.9,4,13.9,2.2
		c26.6-9.6,50.7-23.7,74-39.8c16.1-11.1,29.8-24.7,44-37.9c13.8-12.8,23.1-28.4,32.3-44.3c10.5-18.1,18.5-37.3,23.3-57.7
		c3-13,4.5-26.3,6.7-39.4c0.4-2.5,0.7-5,0.3-7.7c-8.1,13.1-16.2,26.2-24.4,39.2c-0.5-0.2-1-0.3-1.5-0.5c0-6.5-0.1-13.1,0.1-19.6
		c0-0.8,1-1.6,1.5-2.4c8.1-13.1,16.9-25.8,24-39.4c2.5-4.8,1.2-11.8,0.8-17.7c-0.5-8-1.7-16.1-2.8-24c-1.3-8.9-2.8-17.8-4.4-28.1
		c-5.6,8.2-10.2,15.5-15.3,22.4c-5.8,7.9-12,15.6-18.1,23.3c-6.2,7.8-12.2,15.9-18.8,23.4c-9,10.2-18.4,20-27.8,29.8
		c-2.9,3-4.6,5.4-3.6,10.3c2.2,10-9,21.1-18.6,18.1c-6.1-1.9-9.6,0-13.5,3.4c-2,1.7-4.4,3.1-6,5.2c-1.6,2.1-3.1,4.6-3.5,7.1
		c-0.8,4.9-4.4,8.7-9.2,8.7c-4.5,0-8.7-3.9-9.1-8.3c-0.5-6,1.9-9.7,7.9-9.6c5.4,0.1,8.4-2.8,11.5-6.2c0.7-0.7,1.3-1.6,2.1-2.1
		c5.3-3.1,7-6.7,5.8-13.5c-2-11,9.6-19.7,20.4-16.5c2.7,0.8,4.5,0.5,6.4-1.7c15.5-17.7,31.8-34.7,46.4-53.1
		c13.4-16.8,25-35,37.2-52.8c1.2-1.7,1.7-4.6,1.3-6.7c-6.2-29.8-16.1-58.4-27.2-86.7c-8-20.4-19.2-39.1-30.1-58
		c-0.5-0.9-1.6-1.6-2-2c-13.2,19.4-26.4,38.7-39.5,57.8c-1.1-0.4-1.5-0.5-1.6-0.7c-6.8-9.2-6.3-8.8,0.3-18.3
		c10.8-15.4,20.9-31.3,31.3-47.1c1.5-2.3,2.2-4.5,0-7.1c-11.5-13.8-22.7-27.9-34.3-41.7c-1.3-1.6-4.8-2.5-6.8-2
		c-8.5,2.2-17.2-4.9-15.4-14.9c0.3-1.7-0.6-4.3-1.9-5.4c-11.3-8.9-23-17.2-34.1-26.3C689,208.8,671.7,202,656,192.4
		c-5.6-3.4-10.8-3.5-16.7-1.3c-21.3,8.3-42.8,16.3-64.1,24.6c-7.9,3.1-15.3,7.7-23.3,10.1c-3.5,1.1-8.2-1.5-12.4-2.3
		c-0.1-0.8-0.1-1.6-0.2-2.3c31.2-13.1,62.3-26.3,93.7-39.5c-47.5-21.3-97.6-34.9-149-44.1c-51.4-9.2-103.4-14.1-155.6-15.5
		C328.3,121.3,328.4,120.5,328.4,119.7z M884.6,542.6c6.3-7.4,17.4-39.1,19.8-55.2c3.4-23.5,1.3-44-6.3-57.8
		c-2.3,5.2-4.6,10-6.7,14.9c-3.7,8.7-7.4,17.5-11.1,26.3c-2.1,5.1-6.1,9.4-4.6,16.1c2.7,11.7,4.4,23.6,6.3,35.5
		C883.1,528.8,883.7,535.3,884.6,542.6z M769.2,594.5c-4.1,0.1-8.4,4.3-8.3,8.2c0.1,4.5,4.3,8.7,8.5,8.6c3.8-0.1,8.4-4.7,8.3-8.5
		C777.7,599,773,594.4,769.2,594.5z"/>
	<path fill="#FFFFFF" d="M387.5,385.1c-2.5,2-4.4,3.4-6.5,5c-5.8-6.5-11.4-12.8-17-19.1c-6.2-6.9-12.6-13.7-18.7-20.6
		c-1.8-2-3.4-1.5-5.1-0.2c-15.7,11.6-31.4,23.2-46.9,35c-13.6,10.3-27,20.9-40.3,31.6c-7.6,6.1-14.8,12.6-22.2,18.9
		c-2.7,2.3-5.4,4.6-8.4,6.5c36.6-34.9,76-66.5,116.9-97.3c-15.4-16.7-31.6-31.8-48.6-45.9c-16.8-14-34.1-27.4-51-41.5
		c0.8,0.4,1.7,0.8,2.5,1.3c16.6,11.6,33.5,22.9,49.7,35.1c10.6,7.9,20.2,17.1,30.1,25.8c7.1,6.2,13.9,12.8,21.1,18.8
		c1,0.9,4.1,0.5,5.4-0.4c19.9-13.6,39.3-28,59.5-41.1c22.6-14.6,45.6-28.3,68.9-41.8c17.7-10.3,36.1-19.5,54.2-29.2
		c4.6-2.5,10.1-1.5,14.4,2.7c-69,32.3-133.6,71.8-196.4,115.2C361.8,357.8,374.3,371.1,387.5,385.1z"/>
	<path fill="#FFFFFF" d="M560.7,662.1c3.6,10.1,7.4,19.2,10.1,28.6c6.6,23.8,13.2,47.6,18.7,71.6c2.7,12,3.1,24.5,4.3,36.8
		c0.6,6.6,1,13.2,1,19.8c-0.2,19.6-2.7,38.8-9.4,57.4c-1.2,3.5-1.6,6,1,9.4c5.5,7.4,2.3,19-5.3,23.3c-9.7,5.4-20.9-0.3-23.4-7.6
		c-3.8-11.4,2-22.7,14.5-23c3.1-0.1,5-0.7,5.7-4c2.2-11.6,4.9-23.1,6.8-34.8c1-6.5,1.1-13.2,1.1-19.8c-0.3-22.7-3.4-45-8.3-67.1
		c-6.1-27.6-14.7-54.4-24.7-80.7c-0.5-1.2,0.2-3.5,1.2-4.6C555.4,665.5,557.7,664.3,560.7,662.1z"/>
	<path fill="#FFFFFF" d="M755.8,710.7c34-29,62.8-62.2,88.4-98.4c0.4,0.2,0.9,0.4,1.3,0.5c0,6.2,0.3,12.5-0.2,18.6
		c-0.2,2.2-2.1,4.4-3.7,6.2c-12.2,14.7-23.9,29.8-36.9,43.7c-12.1,13-25.7,24.6-38.5,37.1c-1.2,1.2-1.7,3.8-1.4,5.5
		c2.1,11.6-2.9,23.8-16.7,27.2c-11.8,2.9-23.1-2.2-26.9-15.4c-2.5-8.7-0.9-17.3,6.5-23.4c7.1-5.8,15.2-7.2,23.9-3.6
		C753,709.4,754.4,710.1,755.8,710.7z M754.3,729.4c0-5.8-6.1-11.7-12-11.5c-4.9,0.1-11.1,6.5-11.1,11.6c0,5.1,6.4,11.6,11.6,11.6
		C748.3,741.1,754.3,735,754.3,729.4z"/>
	<path fill="#FFFFFF" d="M260.3,759.3c9.2,0.3,16.3,6.9,16.2,16.5c0,9.1-6.6,16.5-16.2,16.6c-9.6,0.1-16.6-7-16.6-16.5
		C243.8,766.3,250.7,759.3,260.3,759.3z"/>
	<path fill="#FFFFFF" d="M701.2,771.7c-7.4,0-11.5-4.5-11.8-12c-0.2-5.1,4.5-11.4,12.1-11.5c5.7-0.1,11.8,6.4,11.6,11.9
		C713,766.6,707.7,771.8,701.2,771.7z"/>
	<path fill="#FFFFFF" d="M138.6,777.3c-7.9,0.8-15.9,1.6-23.8,2.3c0-0.4-0.1-0.7-0.1-1.1c8-0.9,16-1.9,24-2.8
		C138.6,776.3,138.6,776.8,138.6,777.3z"/>
</g>
</svg>
